<mxfile host="Electron" modified="2024-05-31T09:56:40.899Z" agent="Mozilla/5.0 (X11; Linux x86_64) AppleWebKit/537.36 (KHTML, like Gecko) draw.io/24.4.8 Chrome/124.0.6367.207 Electron/30.0.6 Safari/537.36" etag="LKvGKZEJbfF2sJ_xVIl8" version="24.4.8" type="device">
  <diagram name="Page-1" id="KZN-zyBD-0XipZeYQRDT">
    <mxGraphModel dx="574" dy="332" grid="1" gridSize="10" guides="1" tooltips="1" connect="1" arrows="1" fold="1" page="1" pageScale="1" pageWidth="500" pageHeight="200" math="0" shadow="0">
      <root>
        <mxCell id="0" />
        <mxCell id="1" parent="0" />
        <mxCell id="31jEwdzjXjWapc_lvmB_-1" value="" style="group" vertex="1" connectable="0" parent="1">
          <mxGeometry x="9" y="78" width="482.6" height="44.45" as="geometry" />
        </mxCell>
        <mxCell id="9eh16xiQdjSHdPkHuFP6-378" value="" style="rounded=0;whiteSpace=wrap;html=1;strokeColor=#aaaaaa;fillColor=#bfbfbf;strokeWidth=1;container=0;part=1;movable=1;resizable=1;rotatable=1;deletable=1;editable=1;locked=0;connectable=1;" parent="31jEwdzjXjWapc_lvmB_-1" vertex="1">
          <mxGeometry width="482.6" height="44.45" as="geometry" />
        </mxCell>
        <mxCell id="9eh16xiQdjSHdPkHuFP6-379" value="" style="rounded=0;whiteSpace=wrap;html=1;strokeColor=#aaaaaa;fillColor=#222222;strokeWidth=1;movable=1;resizable=1;rotatable=1;deletable=1;editable=1;locked=0;connectable=1;container=0;" parent="31jEwdzjXjWapc_lvmB_-1" vertex="1">
          <mxGeometry x="18" width="446.6" height="44.45" as="geometry" />
        </mxCell>
        <mxCell id="jP2WbbBxQBNUkDRbYnSl-231" value="" style="rounded=0;whiteSpace=wrap;html=1;fillColor=#000000;fontColor=#ffffff;strokeColor=none;container=0;" parent="31jEwdzjXjWapc_lvmB_-1" vertex="1">
          <mxGeometry x="7" y="19.224999999999994" width="4" height="6" as="geometry" />
        </mxCell>
        <mxCell id="jP2WbbBxQBNUkDRbYnSl-232" value="" style="ellipse;whiteSpace=wrap;html=1;aspect=fixed;strokeColor=none;fillColor=#000000;container=0;" parent="31jEwdzjXjWapc_lvmB_-1" vertex="1">
          <mxGeometry x="8" y="19.224999999999994" width="6" height="6" as="geometry" />
        </mxCell>
        <mxCell id="jP2WbbBxQBNUkDRbYnSl-233" value="" style="ellipse;whiteSpace=wrap;html=1;aspect=fixed;strokeColor=none;fillColor=#000000;container=0;" parent="31jEwdzjXjWapc_lvmB_-1" vertex="1">
          <mxGeometry x="4" y="19.224999999999994" width="6" height="6" as="geometry" />
        </mxCell>
        <mxCell id="wEfOMtyTKLQo5fzBktWI-2" value="" style="rounded=0;whiteSpace=wrap;html=1;fillColor=#000000;fontColor=#ffffff;strokeColor=none;container=0;" parent="31jEwdzjXjWapc_lvmB_-1" vertex="1">
          <mxGeometry x="471.59625000000017" y="19.224999999999994" width="4" height="6" as="geometry" />
        </mxCell>
        <mxCell id="wEfOMtyTKLQo5fzBktWI-3" value="" style="ellipse;whiteSpace=wrap;html=1;aspect=fixed;strokeColor=none;fillColor=#000000;container=0;" parent="31jEwdzjXjWapc_lvmB_-1" vertex="1">
          <mxGeometry x="472.59625000000017" y="19.224999999999994" width="6" height="6" as="geometry" />
        </mxCell>
        <mxCell id="wEfOMtyTKLQo5fzBktWI-4" value="" style="ellipse;whiteSpace=wrap;html=1;aspect=fixed;strokeColor=none;fillColor=#000000;container=0;" parent="31jEwdzjXjWapc_lvmB_-1" vertex="1">
          <mxGeometry x="468.59625000000017" y="19.224999999999994" width="6" height="6" as="geometry" />
        </mxCell>
        <mxCell id="jP2WbbBxQBNUkDRbYnSl-206" value="" style="rounded=0;whiteSpace=wrap;html=1;strokeColor=#aaaaaa;fillColor=#bfbfbf;strokeWidth=1;movable=1;resizable=1;rotatable=1;deletable=1;editable=1;locked=0;connectable=1;container=0;" parent="31jEwdzjXjWapc_lvmB_-1" vertex="1">
          <mxGeometry x="7.99625" width="10" height="44.45" as="geometry" />
        </mxCell>
        <mxCell id="wEfOMtyTKLQo5fzBktWI-5" value="" style="rounded=0;whiteSpace=wrap;html=1;strokeColor=#aaaaaa;fillColor=#bfbfbf;strokeWidth=1;movable=1;resizable=1;rotatable=1;deletable=1;editable=1;locked=0;connectable=1;container=0;" parent="31jEwdzjXjWapc_lvmB_-1" vertex="1">
          <mxGeometry x="464.60000000000014" width="10" height="44.45" as="geometry" />
        </mxCell>
        <mxCell id="s0dWRtyi07ZF37cMcm2--266" value="" style="rounded=0;whiteSpace=wrap;html=1;strokeColor=none;fillColor=#000000;strokeWidth=1;movable=1;resizable=1;rotatable=1;deletable=1;editable=1;locked=0;connectable=1;container=0;" parent="31jEwdzjXjWapc_lvmB_-1" vertex="1">
          <mxGeometry x="349" y="0.5" width="10" height="5" as="geometry" />
        </mxCell>
        <mxCell id="s0dWRtyi07ZF37cMcm2--267" value="" style="rounded=0;whiteSpace=wrap;html=1;strokeColor=none;fillColor=#000000;strokeWidth=1;movable=1;resizable=1;rotatable=1;deletable=1;editable=1;locked=0;connectable=1;container=0;" parent="31jEwdzjXjWapc_lvmB_-1" vertex="1">
          <mxGeometry x="360.5" y="0.5" width="10" height="5" as="geometry" />
        </mxCell>
        <mxCell id="s0dWRtyi07ZF37cMcm2--268" value="" style="rounded=0;whiteSpace=wrap;html=1;strokeColor=none;fillColor=#000000;strokeWidth=1;movable=1;resizable=1;rotatable=1;deletable=1;editable=1;locked=0;connectable=1;container=0;" parent="31jEwdzjXjWapc_lvmB_-1" vertex="1">
          <mxGeometry x="372" y="0.5" width="10" height="5" as="geometry" />
        </mxCell>
        <mxCell id="s0dWRtyi07ZF37cMcm2--269" value="" style="rounded=0;whiteSpace=wrap;html=1;strokeColor=none;fillColor=#000000;strokeWidth=1;movable=1;resizable=1;rotatable=1;deletable=1;editable=1;locked=0;connectable=1;container=0;" parent="31jEwdzjXjWapc_lvmB_-1" vertex="1">
          <mxGeometry x="383.5" y="0.5" width="10" height="5" as="geometry" />
        </mxCell>
        <mxCell id="s0dWRtyi07ZF37cMcm2--270" value="" style="rounded=0;whiteSpace=wrap;html=1;strokeColor=none;fillColor=#000000;strokeWidth=1;movable=1;resizable=1;rotatable=1;deletable=1;editable=1;locked=0;connectable=1;container=0;" parent="31jEwdzjXjWapc_lvmB_-1" vertex="1">
          <mxGeometry x="395" y="0.5" width="10" height="5" as="geometry" />
        </mxCell>
        <mxCell id="s0dWRtyi07ZF37cMcm2--271" value="" style="rounded=0;whiteSpace=wrap;html=1;strokeColor=none;fillColor=#000000;strokeWidth=1;movable=1;resizable=1;rotatable=1;deletable=1;editable=1;locked=0;connectable=1;container=0;" parent="31jEwdzjXjWapc_lvmB_-1" vertex="1">
          <mxGeometry x="406.5" y="0.5" width="10" height="5" as="geometry" />
        </mxCell>
        <mxCell id="s0dWRtyi07ZF37cMcm2--273" value="" style="rounded=0;whiteSpace=wrap;html=1;strokeColor=none;fillColor=#000000;strokeWidth=1;movable=1;resizable=1;rotatable=1;deletable=1;editable=1;locked=0;connectable=1;container=0;" parent="31jEwdzjXjWapc_lvmB_-1" vertex="1">
          <mxGeometry x="418" y="0.5" width="10" height="5" as="geometry" />
        </mxCell>
        <mxCell id="s0dWRtyi07ZF37cMcm2--274" value="" style="rounded=0;whiteSpace=wrap;html=1;strokeColor=none;fillColor=#000000;strokeWidth=1;movable=1;resizable=1;rotatable=1;deletable=1;editable=1;locked=0;connectable=1;container=0;" parent="31jEwdzjXjWapc_lvmB_-1" vertex="1">
          <mxGeometry x="267" y="0.5" width="10" height="5" as="geometry" />
        </mxCell>
        <mxCell id="s0dWRtyi07ZF37cMcm2--275" value="" style="rounded=0;whiteSpace=wrap;html=1;strokeColor=none;fillColor=#000000;strokeWidth=1;movable=1;resizable=1;rotatable=1;deletable=1;editable=1;locked=0;connectable=1;container=0;" parent="31jEwdzjXjWapc_lvmB_-1" vertex="1">
          <mxGeometry x="278.5" y="0.5" width="10" height="5" as="geometry" />
        </mxCell>
        <mxCell id="s0dWRtyi07ZF37cMcm2--276" value="" style="rounded=0;whiteSpace=wrap;html=1;strokeColor=none;fillColor=#000000;strokeWidth=1;movable=1;resizable=1;rotatable=1;deletable=1;editable=1;locked=0;connectable=1;container=0;" parent="31jEwdzjXjWapc_lvmB_-1" vertex="1">
          <mxGeometry x="290" y="0.5" width="10" height="5" as="geometry" />
        </mxCell>
        <mxCell id="s0dWRtyi07ZF37cMcm2--277" value="" style="rounded=0;whiteSpace=wrap;html=1;strokeColor=none;fillColor=#000000;strokeWidth=1;movable=1;resizable=1;rotatable=1;deletable=1;editable=1;locked=0;connectable=1;container=0;" parent="31jEwdzjXjWapc_lvmB_-1" vertex="1">
          <mxGeometry x="301.5" y="0.5" width="10" height="5" as="geometry" />
        </mxCell>
        <mxCell id="s0dWRtyi07ZF37cMcm2--278" value="" style="rounded=0;whiteSpace=wrap;html=1;strokeColor=none;fillColor=#000000;strokeWidth=1;movable=1;resizable=1;rotatable=1;deletable=1;editable=1;locked=0;connectable=1;container=0;" parent="31jEwdzjXjWapc_lvmB_-1" vertex="1">
          <mxGeometry x="313" y="0.5" width="10" height="5" as="geometry" />
        </mxCell>
        <mxCell id="s0dWRtyi07ZF37cMcm2--279" value="" style="rounded=0;whiteSpace=wrap;html=1;strokeColor=none;fillColor=#000000;strokeWidth=1;movable=1;resizable=1;rotatable=1;deletable=1;editable=1;locked=0;connectable=1;container=0;" parent="31jEwdzjXjWapc_lvmB_-1" vertex="1">
          <mxGeometry x="324.5" y="0.5" width="10" height="5" as="geometry" />
        </mxCell>
        <mxCell id="s0dWRtyi07ZF37cMcm2--280" value="" style="rounded=0;whiteSpace=wrap;html=1;strokeColor=none;fillColor=#000000;strokeWidth=1;movable=1;resizable=1;rotatable=1;deletable=1;editable=1;locked=0;connectable=1;container=0;" parent="31jEwdzjXjWapc_lvmB_-1" vertex="1">
          <mxGeometry x="336" y="0.5" width="10" height="5" as="geometry" />
        </mxCell>
        <mxCell id="s0dWRtyi07ZF37cMcm2--281" value="" style="rounded=0;whiteSpace=wrap;html=1;strokeColor=none;fillColor=#000000;strokeWidth=1;movable=1;resizable=1;rotatable=1;deletable=1;editable=1;locked=0;connectable=1;container=0;" parent="31jEwdzjXjWapc_lvmB_-1" vertex="1">
          <mxGeometry x="185" y="0.5" width="10" height="5" as="geometry" />
        </mxCell>
        <mxCell id="s0dWRtyi07ZF37cMcm2--282" value="" style="rounded=0;whiteSpace=wrap;html=1;strokeColor=none;fillColor=#000000;strokeWidth=1;movable=1;resizable=1;rotatable=1;deletable=1;editable=1;locked=0;connectable=1;container=0;" parent="31jEwdzjXjWapc_lvmB_-1" vertex="1">
          <mxGeometry x="196.5" y="0.5" width="10" height="5" as="geometry" />
        </mxCell>
        <mxCell id="s0dWRtyi07ZF37cMcm2--283" value="" style="rounded=0;whiteSpace=wrap;html=1;strokeColor=none;fillColor=#000000;strokeWidth=1;movable=1;resizable=1;rotatable=1;deletable=1;editable=1;locked=0;connectable=1;container=0;" parent="31jEwdzjXjWapc_lvmB_-1" vertex="1">
          <mxGeometry x="208" y="0.5" width="10" height="5" as="geometry" />
        </mxCell>
        <mxCell id="s0dWRtyi07ZF37cMcm2--284" value="" style="rounded=0;whiteSpace=wrap;html=1;strokeColor=none;fillColor=#000000;strokeWidth=1;movable=1;resizable=1;rotatable=1;deletable=1;editable=1;locked=0;connectable=1;container=0;" parent="31jEwdzjXjWapc_lvmB_-1" vertex="1">
          <mxGeometry x="219.5" y="0.5" width="10" height="5" as="geometry" />
        </mxCell>
        <mxCell id="s0dWRtyi07ZF37cMcm2--285" value="" style="rounded=0;whiteSpace=wrap;html=1;strokeColor=none;fillColor=#000000;strokeWidth=1;movable=1;resizable=1;rotatable=1;deletable=1;editable=1;locked=0;connectable=1;container=0;" parent="31jEwdzjXjWapc_lvmB_-1" vertex="1">
          <mxGeometry x="231" y="0.5" width="10" height="5" as="geometry" />
        </mxCell>
        <mxCell id="s0dWRtyi07ZF37cMcm2--286" value="" style="rounded=0;whiteSpace=wrap;html=1;strokeColor=none;fillColor=#000000;strokeWidth=1;movable=1;resizable=1;rotatable=1;deletable=1;editable=1;locked=0;connectable=1;container=0;" parent="31jEwdzjXjWapc_lvmB_-1" vertex="1">
          <mxGeometry x="242.5" y="0.5" width="10" height="5" as="geometry" />
        </mxCell>
        <mxCell id="s0dWRtyi07ZF37cMcm2--287" value="" style="rounded=0;whiteSpace=wrap;html=1;strokeColor=none;fillColor=#000000;strokeWidth=1;movable=1;resizable=1;rotatable=1;deletable=1;editable=1;locked=0;connectable=1;container=0;" parent="31jEwdzjXjWapc_lvmB_-1" vertex="1">
          <mxGeometry x="254" y="0.5" width="10" height="5" as="geometry" />
        </mxCell>
        <mxCell id="s0dWRtyi07ZF37cMcm2--288" value="" style="rounded=0;whiteSpace=wrap;html=1;strokeColor=none;fillColor=#000000;strokeWidth=1;movable=1;resizable=1;rotatable=1;deletable=1;editable=1;locked=0;connectable=1;container=0;" parent="31jEwdzjXjWapc_lvmB_-1" vertex="1">
          <mxGeometry x="103" y="0.5" width="10" height="5" as="geometry" />
        </mxCell>
        <mxCell id="s0dWRtyi07ZF37cMcm2--289" value="" style="rounded=0;whiteSpace=wrap;html=1;strokeColor=none;fillColor=#000000;strokeWidth=1;movable=1;resizable=1;rotatable=1;deletable=1;editable=1;locked=0;connectable=1;container=0;" parent="31jEwdzjXjWapc_lvmB_-1" vertex="1">
          <mxGeometry x="114.5" y="0.5" width="10" height="5" as="geometry" />
        </mxCell>
        <mxCell id="s0dWRtyi07ZF37cMcm2--290" value="" style="rounded=0;whiteSpace=wrap;html=1;strokeColor=none;fillColor=#000000;strokeWidth=1;movable=1;resizable=1;rotatable=1;deletable=1;editable=1;locked=0;connectable=1;container=0;" parent="31jEwdzjXjWapc_lvmB_-1" vertex="1">
          <mxGeometry x="126" y="0.5" width="10" height="5" as="geometry" />
        </mxCell>
        <mxCell id="s0dWRtyi07ZF37cMcm2--291" value="" style="rounded=0;whiteSpace=wrap;html=1;strokeColor=none;fillColor=#000000;strokeWidth=1;movable=1;resizable=1;rotatable=1;deletable=1;editable=1;locked=0;connectable=1;container=0;" parent="31jEwdzjXjWapc_lvmB_-1" vertex="1">
          <mxGeometry x="137.5" y="0.5" width="10" height="5" as="geometry" />
        </mxCell>
        <mxCell id="s0dWRtyi07ZF37cMcm2--292" value="" style="rounded=0;whiteSpace=wrap;html=1;strokeColor=none;fillColor=#000000;strokeWidth=1;movable=1;resizable=1;rotatable=1;deletable=1;editable=1;locked=0;connectable=1;container=0;" parent="31jEwdzjXjWapc_lvmB_-1" vertex="1">
          <mxGeometry x="149" y="0.5" width="10" height="5" as="geometry" />
        </mxCell>
        <mxCell id="s0dWRtyi07ZF37cMcm2--293" value="" style="rounded=0;whiteSpace=wrap;html=1;strokeColor=none;fillColor=#000000;strokeWidth=1;movable=1;resizable=1;rotatable=1;deletable=1;editable=1;locked=0;connectable=1;container=0;" parent="31jEwdzjXjWapc_lvmB_-1" vertex="1">
          <mxGeometry x="160.5" y="0.5" width="10" height="5" as="geometry" />
        </mxCell>
        <mxCell id="s0dWRtyi07ZF37cMcm2--294" value="" style="rounded=0;whiteSpace=wrap;html=1;strokeColor=none;fillColor=#000000;strokeWidth=1;movable=1;resizable=1;rotatable=1;deletable=1;editable=1;locked=0;connectable=1;container=0;" parent="31jEwdzjXjWapc_lvmB_-1" vertex="1">
          <mxGeometry x="172" y="0.5" width="10" height="5" as="geometry" />
        </mxCell>
        <mxCell id="s0dWRtyi07ZF37cMcm2--295" value="" style="rounded=0;whiteSpace=wrap;html=1;strokeColor=none;fillColor=#000000;strokeWidth=1;movable=1;resizable=1;rotatable=1;deletable=1;editable=1;locked=0;connectable=1;container=0;" parent="31jEwdzjXjWapc_lvmB_-1" vertex="1">
          <mxGeometry x="21" y="0.5" width="10" height="5" as="geometry" />
        </mxCell>
        <mxCell id="s0dWRtyi07ZF37cMcm2--300" value="" style="rounded=0;whiteSpace=wrap;html=1;strokeColor=none;fillColor=#000000;strokeWidth=1;movable=1;resizable=1;rotatable=1;deletable=1;editable=1;locked=0;connectable=1;container=0;" parent="31jEwdzjXjWapc_lvmB_-1" vertex="1">
          <mxGeometry x="78.5" y="0.5" width="10" height="5" as="geometry" />
        </mxCell>
        <mxCell id="s0dWRtyi07ZF37cMcm2--301" value="" style="rounded=0;whiteSpace=wrap;html=1;strokeColor=none;fillColor=#000000;strokeWidth=1;movable=1;resizable=1;rotatable=1;deletable=1;editable=1;locked=0;connectable=1;container=0;" parent="31jEwdzjXjWapc_lvmB_-1" vertex="1">
          <mxGeometry x="90" y="0.5" width="10" height="5" as="geometry" />
        </mxCell>
        <mxCell id="s0dWRtyi07ZF37cMcm2--303" value="" style="rounded=0;whiteSpace=wrap;html=1;strokeColor=none;fillColor=#000000;strokeWidth=1;movable=1;resizable=1;rotatable=1;deletable=1;editable=1;locked=0;connectable=1;container=0;" parent="31jEwdzjXjWapc_lvmB_-1" vertex="1">
          <mxGeometry x="44.75" y="0.5" width="20" height="5" as="geometry" />
        </mxCell>
        <mxCell id="s0dWRtyi07ZF37cMcm2--302" value="" style="rounded=0;whiteSpace=wrap;html=1;strokeColor=#000000;fillColor=#222222;strokeWidth=0.1;movable=1;resizable=1;rotatable=1;deletable=1;editable=1;locked=0;connectable=1;container=0;" parent="31jEwdzjXjWapc_lvmB_-1" vertex="1">
          <mxGeometry x="31.75" y="1.5" width="46" height="4" as="geometry" />
        </mxCell>
        <mxCell id="s0dWRtyi07ZF37cMcm2--304" value="" style="rounded=0;whiteSpace=wrap;html=1;strokeColor=#000000;fillColor=#333333;strokeWidth=0.1;movable=1;resizable=1;rotatable=1;deletable=1;editable=1;locked=0;connectable=1;container=0;" parent="31jEwdzjXjWapc_lvmB_-1" vertex="1">
          <mxGeometry x="39.75" y="1.5" width="30" height="4" as="geometry" />
        </mxCell>
        <mxCell id="s0dWRtyi07ZF37cMcm2--305" value="" style="rounded=1;whiteSpace=wrap;html=1;strokeColor=none;fillColor=#121212;strokeWidth=0.1;movable=1;resizable=1;rotatable=1;deletable=1;editable=1;locked=0;connectable=1;container=0;" parent="31jEwdzjXjWapc_lvmB_-1" vertex="1">
          <mxGeometry x="431.75" y="5.5" width="31" height="20" as="geometry" />
        </mxCell>
        <mxCell id="s0dWRtyi07ZF37cMcm2--316" value="" style="ellipse;whiteSpace=wrap;html=1;strokeColor=#000000;fillColor=#60a917;fontColor=#ffffff;movable=1;resizable=1;rotatable=1;deletable=1;editable=1;locked=0;connectable=1;container=0;strokeWidth=0.1;" parent="31jEwdzjXjWapc_lvmB_-1" vertex="1">
          <mxGeometry x="437.75" y="6.5" width="3" height="3" as="geometry" />
        </mxCell>
        <mxCell id="s0dWRtyi07ZF37cMcm2--322" value="" style="ellipse;whiteSpace=wrap;html=1;strokeColor=#000000;fillColor=#6F0000;fontColor=#ffffff;movable=1;resizable=1;rotatable=1;deletable=1;editable=1;locked=0;connectable=1;container=0;strokeWidth=0.1;" parent="31jEwdzjXjWapc_lvmB_-1" vertex="1">
          <mxGeometry x="451.25" y="16.000434782608693" width="7" height="7" as="geometry" />
        </mxCell>
        <mxCell id="s0dWRtyi07ZF37cMcm2--323" value="" style="ellipse;whiteSpace=wrap;html=1;strokeColor=#000000;fillColor=#CCCCCC;fontColor=#ffffff;movable=1;resizable=1;rotatable=1;deletable=1;editable=1;locked=0;connectable=1;container=0;strokeWidth=0.1;" parent="31jEwdzjXjWapc_lvmB_-1" vertex="1">
          <mxGeometry x="436.25" y="16.000434782608693" width="7" height="7" as="geometry" />
        </mxCell>
        <mxCell id="s0dWRtyi07ZF37cMcm2--326" value="" style="strokeWidth=0.1;html=1;shape=mxgraph.flowchart.database;whiteSpace=wrap;strokeColor=default;fillColor=none;movable=1;resizable=1;rotatable=1;deletable=1;editable=1;locked=0;connectable=1;container=0;" parent="31jEwdzjXjWapc_lvmB_-1" vertex="1">
          <mxGeometry x="449.75" y="10.5" width="3" height="3" as="geometry" />
        </mxCell>
        <mxCell id="s0dWRtyi07ZF37cMcm2--327" value="" style="sketch=0;pointerEvents=1;shadow=0;dashed=0;html=1;strokeColor=none;fillColor=#FFFFFF;labelPosition=center;verticalLabelPosition=bottom;verticalAlign=top;align=center;outlineConnect=0;shape=mxgraph.vvd.infrastructure;movable=1;resizable=1;rotatable=1;deletable=1;editable=1;locked=0;connectable=1;container=0;" parent="31jEwdzjXjWapc_lvmB_-1" vertex="1">
          <mxGeometry x="441.75" y="10.5" width="3" height="3" as="geometry" />
        </mxCell>
        <mxCell id="s0dWRtyi07ZF37cMcm2--330" value="" style="triangle;whiteSpace=wrap;html=1;rotation=-90;fillColor=none;strokeWidth=0.1;movable=1;resizable=1;rotatable=1;deletable=1;editable=1;locked=0;connectable=1;container=0;" parent="31jEwdzjXjWapc_lvmB_-1" vertex="1">
          <mxGeometry x="437.75" y="10.5" width="3" height="3" as="geometry" />
        </mxCell>
        <mxCell id="s0dWRtyi07ZF37cMcm2--331" value="" style="sketch=0;html=1;strokeColor=default;shadow=0;fillColor=none;verticalAlign=top;labelPosition=center;verticalLabelPosition=bottom;shape=mxgraph.gcp2.a7_power;gradientColor=none;strokeWidth=0.1;movable=1;resizable=1;rotatable=1;deletable=1;editable=1;locked=0;connectable=1;container=0;" parent="31jEwdzjXjWapc_lvmB_-1" vertex="1">
          <mxGeometry x="453.75" y="10.5" width="3" height="3" as="geometry" />
        </mxCell>
        <mxCell id="s0dWRtyi07ZF37cMcm2--332" value="" style="ellipse;whiteSpace=wrap;html=1;strokeColor=#000000;fillColor=#60a917;fontColor=#ffffff;movable=1;resizable=1;rotatable=1;deletable=1;editable=1;locked=0;connectable=1;container=0;strokeWidth=0.1;" parent="31jEwdzjXjWapc_lvmB_-1" vertex="1">
          <mxGeometry x="441.75" y="6.5" width="3" height="3" as="geometry" />
        </mxCell>
        <mxCell id="s0dWRtyi07ZF37cMcm2--333" value="" style="ellipse;whiteSpace=wrap;html=1;strokeColor=#000000;fillColor=#60a917;fontColor=#ffffff;movable=1;resizable=1;rotatable=1;deletable=1;editable=1;locked=0;connectable=1;container=0;strokeWidth=0.1;" parent="31jEwdzjXjWapc_lvmB_-1" vertex="1">
          <mxGeometry x="445.75" y="6.5" width="3" height="3" as="geometry" />
        </mxCell>
        <mxCell id="s0dWRtyi07ZF37cMcm2--334" value="" style="ellipse;whiteSpace=wrap;html=1;strokeColor=#000000;fillColor=#60a917;fontColor=#ffffff;movable=1;resizable=1;rotatable=1;deletable=1;editable=1;locked=0;connectable=1;container=0;strokeWidth=0.1;" parent="31jEwdzjXjWapc_lvmB_-1" vertex="1">
          <mxGeometry x="449.75" y="6.5" width="3" height="3" as="geometry" />
        </mxCell>
        <mxCell id="s0dWRtyi07ZF37cMcm2--335" value="" style="ellipse;whiteSpace=wrap;html=1;strokeColor=#000000;fillColor=#60a917;fontColor=#ffffff;movable=1;resizable=1;rotatable=1;deletable=1;editable=1;locked=0;connectable=1;container=0;strokeWidth=0.1;" parent="31jEwdzjXjWapc_lvmB_-1" vertex="1">
          <mxGeometry x="453.75" y="6.5" width="3" height="3" as="geometry" />
        </mxCell>
        <mxCell id="s0dWRtyi07ZF37cMcm2--336" value="" style="sketch=0;pointerEvents=1;shadow=0;dashed=0;html=1;strokeColor=none;fillColor=#FFFFFF;labelPosition=center;verticalLabelPosition=bottom;verticalAlign=top;align=center;outlineConnect=0;shape=mxgraph.vvd.infrastructure;movable=1;resizable=1;rotatable=1;deletable=1;editable=1;locked=0;connectable=1;container=0;" parent="31jEwdzjXjWapc_lvmB_-1" vertex="1">
          <mxGeometry x="445.75" y="10.5" width="3" height="3" as="geometry" />
        </mxCell>
        <mxCell id="s0dWRtyi07ZF37cMcm2--337" value="" style="rounded=0;whiteSpace=wrap;html=1;strokeColor=#000000;fillColor=#333333;strokeWidth=0.1;movable=1;resizable=1;rotatable=1;deletable=1;editable=1;locked=0;connectable=1;container=0;" parent="31jEwdzjXjWapc_lvmB_-1" vertex="1">
          <mxGeometry x="42.75" y="1.5" width="24" height="4" as="geometry" />
        </mxCell>
        <mxCell id="s0dWRtyi07ZF37cMcm2--64" value="" style="rounded=0;whiteSpace=wrap;html=1;strokeColor=none;fillColor=#000000;strokeWidth=1;movable=1;resizable=1;rotatable=1;deletable=1;editable=1;locked=0;connectable=1;container=0;" parent="31jEwdzjXjWapc_lvmB_-1" vertex="1">
          <mxGeometry x="18.5" y="7.950000000000003" width="412" height="36" as="geometry" />
        </mxCell>
        <mxCell id="s0dWRtyi07ZF37cMcm2--1" value="" style="rounded=0;whiteSpace=wrap;html=1;strokeColor=none;fillColor=#222222;strokeWidth=1;movable=1;resizable=1;rotatable=1;deletable=1;editable=1;locked=0;connectable=1;container=0;" parent="31jEwdzjXjWapc_lvmB_-1" vertex="1">
          <mxGeometry x="20.5" y="9.950000000000003" width="80" height="15" as="geometry" />
        </mxCell>
        <mxCell id="s0dWRtyi07ZF37cMcm2--23" value="" style="whiteSpace=wrap;html=1;rounded=0;strokeWidth=1;align=center;verticalAlign=middle;fontFamily=Helvetica;fontSize=12;fontColor=default;resizable=1;fillColor=#333333;strokeColor=none;container=0;" parent="31jEwdzjXjWapc_lvmB_-1" vertex="1">
          <mxGeometry x="21.5" y="13.950000000000003" width="66" height="7" as="geometry" />
        </mxCell>
        <mxCell id="s0dWRtyi07ZF37cMcm2--12" value="" style="shape=hexagon;perimeter=hexagonPerimeter2;whiteSpace=wrap;html=1;fixedSize=1;rounded=0;strokeWidth=1;align=center;verticalAlign=middle;fontFamily=Helvetica;fontSize=12;fontColor=default;resizable=1;fillColor=#111111;strokeColor=none;size=3.8021390374331503;container=0;" parent="31jEwdzjXjWapc_lvmB_-1" vertex="1">
          <mxGeometry x="40.5" y="10.950000000000003" width="17" height="6" as="geometry" />
        </mxCell>
        <mxCell id="s0dWRtyi07ZF37cMcm2--7" value="" style="whiteSpace=wrap;html=1;rounded=0;strokeWidth=1;align=center;verticalAlign=middle;fontFamily=Helvetica;fontSize=12;fontColor=default;resizable=1;fillColor=#111111;strokeColor=none;container=0;" parent="31jEwdzjXjWapc_lvmB_-1" vertex="1">
          <mxGeometry x="20.5" y="9.950000000000003" width="5" height="15" as="geometry" />
        </mxCell>
        <mxCell id="s0dWRtyi07ZF37cMcm2--8" value="" style="shape=trapezoid;perimeter=trapezoidPerimeter;whiteSpace=wrap;html=1;fixedSize=1;rounded=0;strokeWidth=1;align=center;verticalAlign=middle;fontFamily=Helvetica;fontSize=12;fontColor=default;resizable=1;fillColor=#111111;strokeColor=none;rotation=90;size=3.977491961414785;container=0;" parent="31jEwdzjXjWapc_lvmB_-1" vertex="1">
          <mxGeometry x="25.5" y="9.950000000000003" width="15" height="15" as="geometry" />
        </mxCell>
        <mxCell id="s0dWRtyi07ZF37cMcm2--21" value="" style="whiteSpace=wrap;html=1;rounded=0;strokeWidth=1;align=center;verticalAlign=middle;fontFamily=Helvetica;fontSize=12;fontColor=default;resizable=1;fillColor=#111111;strokeColor=none;container=0;" parent="31jEwdzjXjWapc_lvmB_-1" vertex="1">
          <mxGeometry x="86.5" y="10.950000000000003" width="6" height="13" as="geometry" />
        </mxCell>
        <mxCell id="s0dWRtyi07ZF37cMcm2--22" value="" style="whiteSpace=wrap;html=1;rounded=0;strokeWidth=1;align=center;verticalAlign=middle;fontFamily=Helvetica;fontSize=12;fontColor=default;resizable=1;fillColor=#333333;strokeColor=none;container=0;" parent="31jEwdzjXjWapc_lvmB_-1" vertex="1">
          <mxGeometry x="92.5" y="10.950000000000003" width="4" height="13" as="geometry" />
        </mxCell>
        <mxCell id="s0dWRtyi07ZF37cMcm2--10" value="" style="rounded=1;whiteSpace=wrap;html=1;strokeWidth=1;align=center;verticalAlign=middle;fontFamily=Helvetica;fontSize=12;fontColor=default;resizable=1;fillColor=#222222;strokeColor=none;arcSize=50;gradientColor=#333333;gradientDirection=east;container=0;" parent="31jEwdzjXjWapc_lvmB_-1" vertex="1">
          <mxGeometry x="21" y="12.200000000000003" width="14" height="5" as="geometry" />
        </mxCell>
        <mxCell id="s0dWRtyi07ZF37cMcm2--11" value="" style="rounded=1;whiteSpace=wrap;html=1;strokeWidth=1;align=center;verticalAlign=middle;fontFamily=Helvetica;fontSize=12;fontColor=default;resizable=1;fillColor=#222222;strokeColor=none;arcSize=50;gradientColor=#333333;gradientDirection=east;container=0;" parent="31jEwdzjXjWapc_lvmB_-1" vertex="1">
          <mxGeometry x="21" y="17.700000000000003" width="14" height="5" as="geometry" />
        </mxCell>
        <mxCell id="s0dWRtyi07ZF37cMcm2--25" value="" style="triangle;whiteSpace=wrap;html=1;strokeColor=#111111;rounded=0;strokeWidth=0.1;align=center;verticalAlign=middle;fontFamily=Helvetica;fontSize=12;fontColor=default;resizable=1;fillColor=#333333;rotation=-180;container=0;" parent="31jEwdzjXjWapc_lvmB_-1" vertex="1">
          <mxGeometry x="93" y="15.950000000000003" width="3" height="3" as="geometry" />
        </mxCell>
        <mxCell id="s0dWRtyi07ZF37cMcm2--27" value="" style="shape=hexagon;perimeter=hexagonPerimeter2;whiteSpace=wrap;html=1;fixedSize=1;rounded=0;strokeWidth=1;align=center;verticalAlign=middle;fontFamily=Helvetica;fontSize=12;fontColor=default;resizable=1;fillColor=#111111;strokeColor=none;size=3.8021390374331503;container=0;" parent="31jEwdzjXjWapc_lvmB_-1" vertex="1">
          <mxGeometry x="40.5" y="17.950000000000003" width="17" height="6" as="geometry" />
        </mxCell>
        <mxCell id="s0dWRtyi07ZF37cMcm2--28" value="" style="shape=hexagon;perimeter=hexagonPerimeter2;whiteSpace=wrap;html=1;fixedSize=1;rounded=0;strokeWidth=1;align=center;verticalAlign=middle;fontFamily=Helvetica;fontSize=12;fontColor=default;resizable=1;fillColor=#111111;strokeColor=none;size=3.8021390374331503;container=0;" parent="31jEwdzjXjWapc_lvmB_-1" vertex="1">
          <mxGeometry x="54.5" y="14.450000000000003" width="17" height="6" as="geometry" />
        </mxCell>
        <mxCell id="s0dWRtyi07ZF37cMcm2--29" value="" style="shape=hexagon;perimeter=hexagonPerimeter2;whiteSpace=wrap;html=1;fixedSize=1;rounded=0;strokeWidth=1;align=center;verticalAlign=middle;fontFamily=Helvetica;fontSize=12;fontColor=default;resizable=1;fillColor=#111111;strokeColor=none;size=3.8021390374331503;container=0;" parent="31jEwdzjXjWapc_lvmB_-1" vertex="1">
          <mxGeometry x="68.5" y="17.950000000000003" width="17" height="6" as="geometry" />
        </mxCell>
        <mxCell id="s0dWRtyi07ZF37cMcm2--30" value="" style="shape=hexagon;perimeter=hexagonPerimeter2;whiteSpace=wrap;html=1;fixedSize=1;rounded=0;strokeWidth=1;align=center;verticalAlign=middle;fontFamily=Helvetica;fontSize=12;fontColor=default;resizable=1;fillColor=#111111;strokeColor=none;size=3.8021390374331503;container=0;" parent="31jEwdzjXjWapc_lvmB_-1" vertex="1">
          <mxGeometry x="68.5" y="10.950000000000003" width="17" height="6" as="geometry" />
        </mxCell>
        <mxCell id="s0dWRtyi07ZF37cMcm2--33" value="" style="shape=trapezoid;perimeter=trapezoidPerimeter;whiteSpace=wrap;html=1;fixedSize=1;rounded=0;strokeWidth=1;align=center;verticalAlign=middle;fontFamily=Helvetica;fontSize=12;fontColor=default;resizable=1;fillColor=#111111;strokeColor=none;size=3.799999999999997;container=0;" parent="31jEwdzjXjWapc_lvmB_-1" vertex="1">
          <mxGeometry x="54.5" y="14.450000000000003" width="17" height="3" as="geometry" />
        </mxCell>
        <mxCell id="s0dWRtyi07ZF37cMcm2--34" value="" style="shape=trapezoid;perimeter=trapezoidPerimeter;whiteSpace=wrap;html=1;fixedSize=1;rounded=0;strokeWidth=1;align=center;verticalAlign=middle;fontFamily=Helvetica;fontSize=12;fontColor=default;resizable=1;fillColor=#111111;strokeColor=none;size=3.799999999999997;container=0;" parent="31jEwdzjXjWapc_lvmB_-1" vertex="1">
          <mxGeometry x="54.5" y="21.450000000000003" width="17" height="3" as="geometry" />
        </mxCell>
        <mxCell id="s0dWRtyi07ZF37cMcm2--35" value="" style="shape=trapezoid;perimeter=trapezoidPerimeter;whiteSpace=wrap;html=1;fixedSize=1;rounded=0;strokeWidth=1;align=center;verticalAlign=middle;fontFamily=Helvetica;fontSize=12;fontColor=default;resizable=1;fillColor=#111111;strokeColor=none;size=3.799999999999997;flipV=1;container=0;" parent="31jEwdzjXjWapc_lvmB_-1" vertex="1">
          <mxGeometry x="54.5" y="10.450000000000003" width="17" height="3" as="geometry" />
        </mxCell>
        <mxCell id="s0dWRtyi07ZF37cMcm2--37" value="" style="whiteSpace=wrap;html=1;rounded=0;strokeWidth=1;align=center;verticalAlign=middle;fontFamily=Helvetica;fontSize=12;fontColor=default;resizable=1;fillColor=#222222;strokeColor=none;container=0;" parent="31jEwdzjXjWapc_lvmB_-1" vertex="1">
          <mxGeometry x="44" y="23.950000000000003" width="38" height="1" as="geometry" />
        </mxCell>
        <mxCell id="s0dWRtyi07ZF37cMcm2--38" value="" style="whiteSpace=wrap;html=1;rounded=0;strokeWidth=1;align=center;verticalAlign=middle;fontFamily=Helvetica;fontSize=12;fontColor=default;resizable=1;fillColor=#222222;strokeColor=none;container=0;" parent="31jEwdzjXjWapc_lvmB_-1" vertex="1">
          <mxGeometry x="44" y="9.950000000000003" width="38" height="1" as="geometry" />
        </mxCell>
        <mxCell id="s0dWRtyi07ZF37cMcm2--39" value="" style="rounded=1;whiteSpace=wrap;html=1;strokeColor=none;fillColor=#008a00;fontColor=#ffffff;container=0;" parent="31jEwdzjXjWapc_lvmB_-1" vertex="1">
          <mxGeometry x="97" y="19.950000000000003" width="2" height="3" as="geometry" />
        </mxCell>
        <mxCell id="s0dWRtyi07ZF37cMcm2--40" value="" style="rounded=1;whiteSpace=wrap;html=1;strokeColor=none;fillColor=#0050ef;fontColor=#ffffff;container=0;" parent="31jEwdzjXjWapc_lvmB_-1" vertex="1">
          <mxGeometry x="97" y="11.950000000000003" width="2" height="3" as="geometry" />
        </mxCell>
        <mxCell id="s0dWRtyi07ZF37cMcm2--66" value="" style="rounded=0;whiteSpace=wrap;html=1;strokeColor=none;fillColor=#222222;strokeWidth=1;movable=1;resizable=1;rotatable=1;deletable=1;editable=1;locked=0;connectable=1;container=0;" parent="31jEwdzjXjWapc_lvmB_-1" vertex="1">
          <mxGeometry x="102.5" y="9.950000000000003" width="80" height="15" as="geometry" />
        </mxCell>
        <mxCell id="s0dWRtyi07ZF37cMcm2--67" value="" style="whiteSpace=wrap;html=1;rounded=0;strokeWidth=1;align=center;verticalAlign=middle;fontFamily=Helvetica;fontSize=12;fontColor=default;resizable=1;fillColor=#333333;strokeColor=none;container=0;" parent="31jEwdzjXjWapc_lvmB_-1" vertex="1">
          <mxGeometry x="103.5" y="13.950000000000003" width="66" height="7" as="geometry" />
        </mxCell>
        <mxCell id="s0dWRtyi07ZF37cMcm2--68" value="" style="shape=hexagon;perimeter=hexagonPerimeter2;whiteSpace=wrap;html=1;fixedSize=1;rounded=0;strokeWidth=1;align=center;verticalAlign=middle;fontFamily=Helvetica;fontSize=12;fontColor=default;resizable=1;fillColor=#111111;strokeColor=none;size=3.8021390374331503;container=0;" parent="31jEwdzjXjWapc_lvmB_-1" vertex="1">
          <mxGeometry x="122.5" y="10.950000000000003" width="17" height="6" as="geometry" />
        </mxCell>
        <mxCell id="s0dWRtyi07ZF37cMcm2--69" value="" style="whiteSpace=wrap;html=1;rounded=0;strokeWidth=1;align=center;verticalAlign=middle;fontFamily=Helvetica;fontSize=12;fontColor=default;resizable=1;fillColor=#111111;strokeColor=none;container=0;" parent="31jEwdzjXjWapc_lvmB_-1" vertex="1">
          <mxGeometry x="102.5" y="9.950000000000003" width="5" height="15" as="geometry" />
        </mxCell>
        <mxCell id="s0dWRtyi07ZF37cMcm2--70" value="" style="shape=trapezoid;perimeter=trapezoidPerimeter;whiteSpace=wrap;html=1;fixedSize=1;rounded=0;strokeWidth=1;align=center;verticalAlign=middle;fontFamily=Helvetica;fontSize=12;fontColor=default;resizable=1;fillColor=#111111;strokeColor=none;rotation=90;size=3.977491961414785;container=0;" parent="31jEwdzjXjWapc_lvmB_-1" vertex="1">
          <mxGeometry x="107.5" y="9.950000000000003" width="15" height="15" as="geometry" />
        </mxCell>
        <mxCell id="s0dWRtyi07ZF37cMcm2--71" value="" style="whiteSpace=wrap;html=1;rounded=0;strokeWidth=1;align=center;verticalAlign=middle;fontFamily=Helvetica;fontSize=12;fontColor=default;resizable=1;fillColor=#111111;strokeColor=none;container=0;" parent="31jEwdzjXjWapc_lvmB_-1" vertex="1">
          <mxGeometry x="168.5" y="10.950000000000003" width="6" height="13" as="geometry" />
        </mxCell>
        <mxCell id="s0dWRtyi07ZF37cMcm2--72" value="" style="whiteSpace=wrap;html=1;rounded=0;strokeWidth=1;align=center;verticalAlign=middle;fontFamily=Helvetica;fontSize=12;fontColor=default;resizable=1;fillColor=#333333;strokeColor=none;container=0;" parent="31jEwdzjXjWapc_lvmB_-1" vertex="1">
          <mxGeometry x="174.5" y="10.950000000000003" width="4" height="13" as="geometry" />
        </mxCell>
        <mxCell id="s0dWRtyi07ZF37cMcm2--73" value="" style="rounded=1;whiteSpace=wrap;html=1;strokeWidth=1;align=center;verticalAlign=middle;fontFamily=Helvetica;fontSize=12;fontColor=default;resizable=1;fillColor=#222222;strokeColor=none;arcSize=50;gradientColor=#333333;gradientDirection=east;container=0;" parent="31jEwdzjXjWapc_lvmB_-1" vertex="1">
          <mxGeometry x="103" y="12.200000000000003" width="14" height="5" as="geometry" />
        </mxCell>
        <mxCell id="s0dWRtyi07ZF37cMcm2--74" value="" style="rounded=1;whiteSpace=wrap;html=1;strokeWidth=1;align=center;verticalAlign=middle;fontFamily=Helvetica;fontSize=12;fontColor=default;resizable=1;fillColor=#222222;strokeColor=none;arcSize=50;gradientColor=#333333;gradientDirection=east;container=0;" parent="31jEwdzjXjWapc_lvmB_-1" vertex="1">
          <mxGeometry x="103" y="17.700000000000003" width="14" height="5" as="geometry" />
        </mxCell>
        <mxCell id="s0dWRtyi07ZF37cMcm2--75" value="" style="triangle;whiteSpace=wrap;html=1;strokeColor=#111111;rounded=0;strokeWidth=0.1;align=center;verticalAlign=middle;fontFamily=Helvetica;fontSize=12;fontColor=default;resizable=1;fillColor=#333333;rotation=-180;container=0;" parent="31jEwdzjXjWapc_lvmB_-1" vertex="1">
          <mxGeometry x="175" y="15.950000000000003" width="3" height="3" as="geometry" />
        </mxCell>
        <mxCell id="s0dWRtyi07ZF37cMcm2--76" value="" style="shape=hexagon;perimeter=hexagonPerimeter2;whiteSpace=wrap;html=1;fixedSize=1;rounded=0;strokeWidth=1;align=center;verticalAlign=middle;fontFamily=Helvetica;fontSize=12;fontColor=default;resizable=1;fillColor=#111111;strokeColor=none;size=3.8021390374331503;container=0;" parent="31jEwdzjXjWapc_lvmB_-1" vertex="1">
          <mxGeometry x="122.5" y="17.950000000000003" width="17" height="6" as="geometry" />
        </mxCell>
        <mxCell id="s0dWRtyi07ZF37cMcm2--77" value="" style="shape=hexagon;perimeter=hexagonPerimeter2;whiteSpace=wrap;html=1;fixedSize=1;rounded=0;strokeWidth=1;align=center;verticalAlign=middle;fontFamily=Helvetica;fontSize=12;fontColor=default;resizable=1;fillColor=#111111;strokeColor=none;size=3.8021390374331503;container=0;" parent="31jEwdzjXjWapc_lvmB_-1" vertex="1">
          <mxGeometry x="136.5" y="14.450000000000003" width="17" height="6" as="geometry" />
        </mxCell>
        <mxCell id="s0dWRtyi07ZF37cMcm2--78" value="" style="shape=hexagon;perimeter=hexagonPerimeter2;whiteSpace=wrap;html=1;fixedSize=1;rounded=0;strokeWidth=1;align=center;verticalAlign=middle;fontFamily=Helvetica;fontSize=12;fontColor=default;resizable=1;fillColor=#111111;strokeColor=none;size=3.8021390374331503;container=0;" parent="31jEwdzjXjWapc_lvmB_-1" vertex="1">
          <mxGeometry x="150.5" y="17.950000000000003" width="17" height="6" as="geometry" />
        </mxCell>
        <mxCell id="s0dWRtyi07ZF37cMcm2--79" value="" style="shape=hexagon;perimeter=hexagonPerimeter2;whiteSpace=wrap;html=1;fixedSize=1;rounded=0;strokeWidth=1;align=center;verticalAlign=middle;fontFamily=Helvetica;fontSize=12;fontColor=default;resizable=1;fillColor=#111111;strokeColor=none;size=3.8021390374331503;container=0;" parent="31jEwdzjXjWapc_lvmB_-1" vertex="1">
          <mxGeometry x="150.5" y="10.950000000000003" width="17" height="6" as="geometry" />
        </mxCell>
        <mxCell id="s0dWRtyi07ZF37cMcm2--80" value="" style="shape=trapezoid;perimeter=trapezoidPerimeter;whiteSpace=wrap;html=1;fixedSize=1;rounded=0;strokeWidth=1;align=center;verticalAlign=middle;fontFamily=Helvetica;fontSize=12;fontColor=default;resizable=1;fillColor=#111111;strokeColor=none;size=3.799999999999997;container=0;" parent="31jEwdzjXjWapc_lvmB_-1" vertex="1">
          <mxGeometry x="136.5" y="14.450000000000003" width="17" height="3" as="geometry" />
        </mxCell>
        <mxCell id="s0dWRtyi07ZF37cMcm2--81" value="" style="shape=trapezoid;perimeter=trapezoidPerimeter;whiteSpace=wrap;html=1;fixedSize=1;rounded=0;strokeWidth=1;align=center;verticalAlign=middle;fontFamily=Helvetica;fontSize=12;fontColor=default;resizable=1;fillColor=#111111;strokeColor=none;size=3.799999999999997;container=0;" parent="31jEwdzjXjWapc_lvmB_-1" vertex="1">
          <mxGeometry x="136.5" y="21.450000000000003" width="17" height="3" as="geometry" />
        </mxCell>
        <mxCell id="s0dWRtyi07ZF37cMcm2--82" value="" style="shape=trapezoid;perimeter=trapezoidPerimeter;whiteSpace=wrap;html=1;fixedSize=1;rounded=0;strokeWidth=1;align=center;verticalAlign=middle;fontFamily=Helvetica;fontSize=12;fontColor=default;resizable=1;fillColor=#111111;strokeColor=none;size=3.799999999999997;flipV=1;container=0;" parent="31jEwdzjXjWapc_lvmB_-1" vertex="1">
          <mxGeometry x="136.5" y="10.450000000000003" width="17" height="3" as="geometry" />
        </mxCell>
        <mxCell id="s0dWRtyi07ZF37cMcm2--83" value="" style="whiteSpace=wrap;html=1;rounded=0;strokeWidth=1;align=center;verticalAlign=middle;fontFamily=Helvetica;fontSize=12;fontColor=default;resizable=1;fillColor=#222222;strokeColor=none;container=0;" parent="31jEwdzjXjWapc_lvmB_-1" vertex="1">
          <mxGeometry x="126" y="23.950000000000003" width="38" height="1" as="geometry" />
        </mxCell>
        <mxCell id="s0dWRtyi07ZF37cMcm2--84" value="" style="whiteSpace=wrap;html=1;rounded=0;strokeWidth=1;align=center;verticalAlign=middle;fontFamily=Helvetica;fontSize=12;fontColor=default;resizable=1;fillColor=#222222;strokeColor=none;container=0;" parent="31jEwdzjXjWapc_lvmB_-1" vertex="1">
          <mxGeometry x="126" y="9.950000000000003" width="38" height="1" as="geometry" />
        </mxCell>
        <mxCell id="s0dWRtyi07ZF37cMcm2--85" value="" style="rounded=1;whiteSpace=wrap;html=1;strokeColor=none;fillColor=#008a00;fontColor=#ffffff;container=0;" parent="31jEwdzjXjWapc_lvmB_-1" vertex="1">
          <mxGeometry x="179" y="19.950000000000003" width="2" height="3" as="geometry" />
        </mxCell>
        <mxCell id="s0dWRtyi07ZF37cMcm2--86" value="" style="rounded=1;whiteSpace=wrap;html=1;strokeColor=none;fillColor=#0050ef;fontColor=#ffffff;container=0;" parent="31jEwdzjXjWapc_lvmB_-1" vertex="1">
          <mxGeometry x="179" y="11.950000000000003" width="2" height="3" as="geometry" />
        </mxCell>
        <mxCell id="s0dWRtyi07ZF37cMcm2--88" value="" style="rounded=0;whiteSpace=wrap;html=1;strokeColor=none;fillColor=#222222;strokeWidth=1;movable=1;resizable=1;rotatable=1;deletable=1;editable=1;locked=0;connectable=1;container=0;" parent="31jEwdzjXjWapc_lvmB_-1" vertex="1">
          <mxGeometry x="20.5" y="26.950000000000003" width="80" height="15" as="geometry" />
        </mxCell>
        <mxCell id="s0dWRtyi07ZF37cMcm2--89" value="" style="whiteSpace=wrap;html=1;rounded=0;strokeWidth=1;align=center;verticalAlign=middle;fontFamily=Helvetica;fontSize=12;fontColor=default;resizable=1;fillColor=#333333;strokeColor=none;container=0;" parent="31jEwdzjXjWapc_lvmB_-1" vertex="1">
          <mxGeometry x="21.5" y="30.950000000000003" width="66" height="7" as="geometry" />
        </mxCell>
        <mxCell id="s0dWRtyi07ZF37cMcm2--90" value="" style="shape=hexagon;perimeter=hexagonPerimeter2;whiteSpace=wrap;html=1;fixedSize=1;rounded=0;strokeWidth=1;align=center;verticalAlign=middle;fontFamily=Helvetica;fontSize=12;fontColor=default;resizable=1;fillColor=#111111;strokeColor=none;size=3.8021390374331503;container=0;" parent="31jEwdzjXjWapc_lvmB_-1" vertex="1">
          <mxGeometry x="40.5" y="27.950000000000003" width="17" height="6" as="geometry" />
        </mxCell>
        <mxCell id="s0dWRtyi07ZF37cMcm2--91" value="" style="whiteSpace=wrap;html=1;rounded=0;strokeWidth=1;align=center;verticalAlign=middle;fontFamily=Helvetica;fontSize=12;fontColor=default;resizable=1;fillColor=#111111;strokeColor=none;container=0;" parent="31jEwdzjXjWapc_lvmB_-1" vertex="1">
          <mxGeometry x="20.5" y="26.950000000000003" width="5" height="15" as="geometry" />
        </mxCell>
        <mxCell id="s0dWRtyi07ZF37cMcm2--92" value="" style="shape=trapezoid;perimeter=trapezoidPerimeter;whiteSpace=wrap;html=1;fixedSize=1;rounded=0;strokeWidth=1;align=center;verticalAlign=middle;fontFamily=Helvetica;fontSize=12;fontColor=default;resizable=1;fillColor=#111111;strokeColor=none;rotation=90;size=3.977491961414785;container=0;" parent="31jEwdzjXjWapc_lvmB_-1" vertex="1">
          <mxGeometry x="25.5" y="26.950000000000003" width="15" height="15" as="geometry" />
        </mxCell>
        <mxCell id="s0dWRtyi07ZF37cMcm2--93" value="" style="whiteSpace=wrap;html=1;rounded=0;strokeWidth=1;align=center;verticalAlign=middle;fontFamily=Helvetica;fontSize=12;fontColor=default;resizable=1;fillColor=#111111;strokeColor=none;container=0;" parent="31jEwdzjXjWapc_lvmB_-1" vertex="1">
          <mxGeometry x="86.5" y="27.950000000000003" width="6" height="13" as="geometry" />
        </mxCell>
        <mxCell id="s0dWRtyi07ZF37cMcm2--94" value="" style="whiteSpace=wrap;html=1;rounded=0;strokeWidth=1;align=center;verticalAlign=middle;fontFamily=Helvetica;fontSize=12;fontColor=default;resizable=1;fillColor=#333333;strokeColor=none;container=0;" parent="31jEwdzjXjWapc_lvmB_-1" vertex="1">
          <mxGeometry x="92.5" y="27.950000000000003" width="4" height="13" as="geometry" />
        </mxCell>
        <mxCell id="s0dWRtyi07ZF37cMcm2--95" value="" style="rounded=1;whiteSpace=wrap;html=1;strokeWidth=1;align=center;verticalAlign=middle;fontFamily=Helvetica;fontSize=12;fontColor=default;resizable=1;fillColor=#222222;strokeColor=none;arcSize=50;gradientColor=#333333;gradientDirection=east;container=0;" parent="31jEwdzjXjWapc_lvmB_-1" vertex="1">
          <mxGeometry x="21" y="29.200000000000003" width="14" height="5" as="geometry" />
        </mxCell>
        <mxCell id="s0dWRtyi07ZF37cMcm2--96" value="" style="rounded=1;whiteSpace=wrap;html=1;strokeWidth=1;align=center;verticalAlign=middle;fontFamily=Helvetica;fontSize=12;fontColor=default;resizable=1;fillColor=#222222;strokeColor=none;arcSize=50;gradientColor=#333333;gradientDirection=east;container=0;" parent="31jEwdzjXjWapc_lvmB_-1" vertex="1">
          <mxGeometry x="21" y="34.7" width="14" height="5" as="geometry" />
        </mxCell>
        <mxCell id="s0dWRtyi07ZF37cMcm2--97" value="" style="triangle;whiteSpace=wrap;html=1;strokeColor=#111111;rounded=0;strokeWidth=0.1;align=center;verticalAlign=middle;fontFamily=Helvetica;fontSize=12;fontColor=default;resizable=1;fillColor=#333333;rotation=-180;container=0;" parent="31jEwdzjXjWapc_lvmB_-1" vertex="1">
          <mxGeometry x="93" y="32.95" width="3" height="3" as="geometry" />
        </mxCell>
        <mxCell id="s0dWRtyi07ZF37cMcm2--98" value="" style="shape=hexagon;perimeter=hexagonPerimeter2;whiteSpace=wrap;html=1;fixedSize=1;rounded=0;strokeWidth=1;align=center;verticalAlign=middle;fontFamily=Helvetica;fontSize=12;fontColor=default;resizable=1;fillColor=#111111;strokeColor=none;size=3.8021390374331503;container=0;" parent="31jEwdzjXjWapc_lvmB_-1" vertex="1">
          <mxGeometry x="40.5" y="34.95" width="17" height="6" as="geometry" />
        </mxCell>
        <mxCell id="s0dWRtyi07ZF37cMcm2--99" value="" style="shape=hexagon;perimeter=hexagonPerimeter2;whiteSpace=wrap;html=1;fixedSize=1;rounded=0;strokeWidth=1;align=center;verticalAlign=middle;fontFamily=Helvetica;fontSize=12;fontColor=default;resizable=1;fillColor=#111111;strokeColor=none;size=3.8021390374331503;container=0;" parent="31jEwdzjXjWapc_lvmB_-1" vertex="1">
          <mxGeometry x="54.5" y="31.450000000000003" width="17" height="6" as="geometry" />
        </mxCell>
        <mxCell id="s0dWRtyi07ZF37cMcm2--100" value="" style="shape=hexagon;perimeter=hexagonPerimeter2;whiteSpace=wrap;html=1;fixedSize=1;rounded=0;strokeWidth=1;align=center;verticalAlign=middle;fontFamily=Helvetica;fontSize=12;fontColor=default;resizable=1;fillColor=#111111;strokeColor=none;size=3.8021390374331503;container=0;" parent="31jEwdzjXjWapc_lvmB_-1" vertex="1">
          <mxGeometry x="68.5" y="34.95" width="17" height="6" as="geometry" />
        </mxCell>
        <mxCell id="s0dWRtyi07ZF37cMcm2--101" value="" style="shape=hexagon;perimeter=hexagonPerimeter2;whiteSpace=wrap;html=1;fixedSize=1;rounded=0;strokeWidth=1;align=center;verticalAlign=middle;fontFamily=Helvetica;fontSize=12;fontColor=default;resizable=1;fillColor=#111111;strokeColor=none;size=3.8021390374331503;container=0;" parent="31jEwdzjXjWapc_lvmB_-1" vertex="1">
          <mxGeometry x="68.5" y="27.950000000000003" width="17" height="6" as="geometry" />
        </mxCell>
        <mxCell id="s0dWRtyi07ZF37cMcm2--102" value="" style="shape=trapezoid;perimeter=trapezoidPerimeter;whiteSpace=wrap;html=1;fixedSize=1;rounded=0;strokeWidth=1;align=center;verticalAlign=middle;fontFamily=Helvetica;fontSize=12;fontColor=default;resizable=1;fillColor=#111111;strokeColor=none;size=3.799999999999997;container=0;" parent="31jEwdzjXjWapc_lvmB_-1" vertex="1">
          <mxGeometry x="54.5" y="31.450000000000003" width="17" height="3" as="geometry" />
        </mxCell>
        <mxCell id="s0dWRtyi07ZF37cMcm2--103" value="" style="shape=trapezoid;perimeter=trapezoidPerimeter;whiteSpace=wrap;html=1;fixedSize=1;rounded=0;strokeWidth=1;align=center;verticalAlign=middle;fontFamily=Helvetica;fontSize=12;fontColor=default;resizable=1;fillColor=#111111;strokeColor=none;size=3.799999999999997;container=0;" parent="31jEwdzjXjWapc_lvmB_-1" vertex="1">
          <mxGeometry x="54.5" y="38.45" width="17" height="3" as="geometry" />
        </mxCell>
        <mxCell id="s0dWRtyi07ZF37cMcm2--104" value="" style="shape=trapezoid;perimeter=trapezoidPerimeter;whiteSpace=wrap;html=1;fixedSize=1;rounded=0;strokeWidth=1;align=center;verticalAlign=middle;fontFamily=Helvetica;fontSize=12;fontColor=default;resizable=1;fillColor=#111111;strokeColor=none;size=3.799999999999997;flipV=1;container=0;" parent="31jEwdzjXjWapc_lvmB_-1" vertex="1">
          <mxGeometry x="54.5" y="27.450000000000003" width="17" height="3" as="geometry" />
        </mxCell>
        <mxCell id="s0dWRtyi07ZF37cMcm2--105" value="" style="whiteSpace=wrap;html=1;rounded=0;strokeWidth=1;align=center;verticalAlign=middle;fontFamily=Helvetica;fontSize=12;fontColor=default;resizable=1;fillColor=#222222;strokeColor=none;container=0;" parent="31jEwdzjXjWapc_lvmB_-1" vertex="1">
          <mxGeometry x="44" y="40.95" width="38" height="1" as="geometry" />
        </mxCell>
        <mxCell id="s0dWRtyi07ZF37cMcm2--106" value="" style="whiteSpace=wrap;html=1;rounded=0;strokeWidth=1;align=center;verticalAlign=middle;fontFamily=Helvetica;fontSize=12;fontColor=default;resizable=1;fillColor=#222222;strokeColor=none;container=0;" parent="31jEwdzjXjWapc_lvmB_-1" vertex="1">
          <mxGeometry x="44" y="26.950000000000003" width="38" height="1" as="geometry" />
        </mxCell>
        <mxCell id="s0dWRtyi07ZF37cMcm2--107" value="" style="rounded=1;whiteSpace=wrap;html=1;strokeColor=none;fillColor=#008a00;fontColor=#ffffff;container=0;" parent="31jEwdzjXjWapc_lvmB_-1" vertex="1">
          <mxGeometry x="97" y="36.95" width="2" height="3" as="geometry" />
        </mxCell>
        <mxCell id="s0dWRtyi07ZF37cMcm2--108" value="" style="rounded=1;whiteSpace=wrap;html=1;strokeColor=none;fillColor=#0050ef;fontColor=#ffffff;container=0;" parent="31jEwdzjXjWapc_lvmB_-1" vertex="1">
          <mxGeometry x="97" y="28.950000000000003" width="2" height="3" as="geometry" />
        </mxCell>
        <mxCell id="s0dWRtyi07ZF37cMcm2--110" value="" style="rounded=0;whiteSpace=wrap;html=1;strokeColor=none;fillColor=#222222;strokeWidth=1;movable=1;resizable=1;rotatable=1;deletable=1;editable=1;locked=0;connectable=1;container=0;" parent="31jEwdzjXjWapc_lvmB_-1" vertex="1">
          <mxGeometry x="102.5" y="26.950000000000003" width="80" height="15" as="geometry" />
        </mxCell>
        <mxCell id="s0dWRtyi07ZF37cMcm2--111" value="" style="whiteSpace=wrap;html=1;rounded=0;strokeWidth=1;align=center;verticalAlign=middle;fontFamily=Helvetica;fontSize=12;fontColor=default;resizable=1;fillColor=#333333;strokeColor=none;container=0;" parent="31jEwdzjXjWapc_lvmB_-1" vertex="1">
          <mxGeometry x="103.5" y="30.950000000000003" width="66" height="7" as="geometry" />
        </mxCell>
        <mxCell id="s0dWRtyi07ZF37cMcm2--112" value="" style="shape=hexagon;perimeter=hexagonPerimeter2;whiteSpace=wrap;html=1;fixedSize=1;rounded=0;strokeWidth=1;align=center;verticalAlign=middle;fontFamily=Helvetica;fontSize=12;fontColor=default;resizable=1;fillColor=#111111;strokeColor=none;size=3.8021390374331503;container=0;" parent="31jEwdzjXjWapc_lvmB_-1" vertex="1">
          <mxGeometry x="122.5" y="27.950000000000003" width="17" height="6" as="geometry" />
        </mxCell>
        <mxCell id="s0dWRtyi07ZF37cMcm2--113" value="" style="whiteSpace=wrap;html=1;rounded=0;strokeWidth=1;align=center;verticalAlign=middle;fontFamily=Helvetica;fontSize=12;fontColor=default;resizable=1;fillColor=#111111;strokeColor=none;container=0;" parent="31jEwdzjXjWapc_lvmB_-1" vertex="1">
          <mxGeometry x="102.5" y="26.950000000000003" width="5" height="15" as="geometry" />
        </mxCell>
        <mxCell id="s0dWRtyi07ZF37cMcm2--114" value="" style="shape=trapezoid;perimeter=trapezoidPerimeter;whiteSpace=wrap;html=1;fixedSize=1;rounded=0;strokeWidth=1;align=center;verticalAlign=middle;fontFamily=Helvetica;fontSize=12;fontColor=default;resizable=1;fillColor=#111111;strokeColor=none;rotation=90;size=3.977491961414785;container=0;" parent="31jEwdzjXjWapc_lvmB_-1" vertex="1">
          <mxGeometry x="107.5" y="26.950000000000003" width="15" height="15" as="geometry" />
        </mxCell>
        <mxCell id="s0dWRtyi07ZF37cMcm2--115" value="" style="whiteSpace=wrap;html=1;rounded=0;strokeWidth=1;align=center;verticalAlign=middle;fontFamily=Helvetica;fontSize=12;fontColor=default;resizable=1;fillColor=#111111;strokeColor=none;container=0;" parent="31jEwdzjXjWapc_lvmB_-1" vertex="1">
          <mxGeometry x="168.5" y="27.950000000000003" width="6" height="13" as="geometry" />
        </mxCell>
        <mxCell id="s0dWRtyi07ZF37cMcm2--116" value="" style="whiteSpace=wrap;html=1;rounded=0;strokeWidth=1;align=center;verticalAlign=middle;fontFamily=Helvetica;fontSize=12;fontColor=default;resizable=1;fillColor=#333333;strokeColor=none;container=0;" parent="31jEwdzjXjWapc_lvmB_-1" vertex="1">
          <mxGeometry x="174.5" y="27.950000000000003" width="4" height="13" as="geometry" />
        </mxCell>
        <mxCell id="s0dWRtyi07ZF37cMcm2--117" value="" style="rounded=1;whiteSpace=wrap;html=1;strokeWidth=1;align=center;verticalAlign=middle;fontFamily=Helvetica;fontSize=12;fontColor=default;resizable=1;fillColor=#222222;strokeColor=none;arcSize=50;gradientColor=#333333;gradientDirection=east;container=0;" parent="31jEwdzjXjWapc_lvmB_-1" vertex="1">
          <mxGeometry x="103" y="29.200000000000003" width="14" height="5" as="geometry" />
        </mxCell>
        <mxCell id="s0dWRtyi07ZF37cMcm2--118" value="" style="rounded=1;whiteSpace=wrap;html=1;strokeWidth=1;align=center;verticalAlign=middle;fontFamily=Helvetica;fontSize=12;fontColor=default;resizable=1;fillColor=#222222;strokeColor=none;arcSize=50;gradientColor=#333333;gradientDirection=east;container=0;" parent="31jEwdzjXjWapc_lvmB_-1" vertex="1">
          <mxGeometry x="103" y="34.7" width="14" height="5" as="geometry" />
        </mxCell>
        <mxCell id="s0dWRtyi07ZF37cMcm2--119" value="" style="triangle;whiteSpace=wrap;html=1;strokeColor=#111111;rounded=0;strokeWidth=0.1;align=center;verticalAlign=middle;fontFamily=Helvetica;fontSize=12;fontColor=default;resizable=1;fillColor=#333333;rotation=-180;container=0;" parent="31jEwdzjXjWapc_lvmB_-1" vertex="1">
          <mxGeometry x="175" y="32.95" width="3" height="3" as="geometry" />
        </mxCell>
        <mxCell id="s0dWRtyi07ZF37cMcm2--120" value="" style="shape=hexagon;perimeter=hexagonPerimeter2;whiteSpace=wrap;html=1;fixedSize=1;rounded=0;strokeWidth=1;align=center;verticalAlign=middle;fontFamily=Helvetica;fontSize=12;fontColor=default;resizable=1;fillColor=#111111;strokeColor=none;size=3.8021390374331503;container=0;" parent="31jEwdzjXjWapc_lvmB_-1" vertex="1">
          <mxGeometry x="122.5" y="34.95" width="17" height="6" as="geometry" />
        </mxCell>
        <mxCell id="s0dWRtyi07ZF37cMcm2--121" value="" style="shape=hexagon;perimeter=hexagonPerimeter2;whiteSpace=wrap;html=1;fixedSize=1;rounded=0;strokeWidth=1;align=center;verticalAlign=middle;fontFamily=Helvetica;fontSize=12;fontColor=default;resizable=1;fillColor=#111111;strokeColor=none;size=3.8021390374331503;container=0;" parent="31jEwdzjXjWapc_lvmB_-1" vertex="1">
          <mxGeometry x="136.5" y="31.450000000000003" width="17" height="6" as="geometry" />
        </mxCell>
        <mxCell id="s0dWRtyi07ZF37cMcm2--122" value="" style="shape=hexagon;perimeter=hexagonPerimeter2;whiteSpace=wrap;html=1;fixedSize=1;rounded=0;strokeWidth=1;align=center;verticalAlign=middle;fontFamily=Helvetica;fontSize=12;fontColor=default;resizable=1;fillColor=#111111;strokeColor=none;size=3.8021390374331503;container=0;" parent="31jEwdzjXjWapc_lvmB_-1" vertex="1">
          <mxGeometry x="150.5" y="34.95" width="17" height="6" as="geometry" />
        </mxCell>
        <mxCell id="s0dWRtyi07ZF37cMcm2--123" value="" style="shape=hexagon;perimeter=hexagonPerimeter2;whiteSpace=wrap;html=1;fixedSize=1;rounded=0;strokeWidth=1;align=center;verticalAlign=middle;fontFamily=Helvetica;fontSize=12;fontColor=default;resizable=1;fillColor=#111111;strokeColor=none;size=3.8021390374331503;container=0;" parent="31jEwdzjXjWapc_lvmB_-1" vertex="1">
          <mxGeometry x="150.5" y="27.950000000000003" width="17" height="6" as="geometry" />
        </mxCell>
        <mxCell id="s0dWRtyi07ZF37cMcm2--124" value="" style="shape=trapezoid;perimeter=trapezoidPerimeter;whiteSpace=wrap;html=1;fixedSize=1;rounded=0;strokeWidth=1;align=center;verticalAlign=middle;fontFamily=Helvetica;fontSize=12;fontColor=default;resizable=1;fillColor=#111111;strokeColor=none;size=3.799999999999997;container=0;" parent="31jEwdzjXjWapc_lvmB_-1" vertex="1">
          <mxGeometry x="136.5" y="31.450000000000003" width="17" height="3" as="geometry" />
        </mxCell>
        <mxCell id="s0dWRtyi07ZF37cMcm2--125" value="" style="shape=trapezoid;perimeter=trapezoidPerimeter;whiteSpace=wrap;html=1;fixedSize=1;rounded=0;strokeWidth=1;align=center;verticalAlign=middle;fontFamily=Helvetica;fontSize=12;fontColor=default;resizable=1;fillColor=#111111;strokeColor=none;size=3.799999999999997;container=0;" parent="31jEwdzjXjWapc_lvmB_-1" vertex="1">
          <mxGeometry x="136.5" y="38.45" width="17" height="3" as="geometry" />
        </mxCell>
        <mxCell id="s0dWRtyi07ZF37cMcm2--126" value="" style="shape=trapezoid;perimeter=trapezoidPerimeter;whiteSpace=wrap;html=1;fixedSize=1;rounded=0;strokeWidth=1;align=center;verticalAlign=middle;fontFamily=Helvetica;fontSize=12;fontColor=default;resizable=1;fillColor=#111111;strokeColor=none;size=3.799999999999997;flipV=1;container=0;" parent="31jEwdzjXjWapc_lvmB_-1" vertex="1">
          <mxGeometry x="136.5" y="27.450000000000003" width="17" height="3" as="geometry" />
        </mxCell>
        <mxCell id="s0dWRtyi07ZF37cMcm2--127" value="" style="whiteSpace=wrap;html=1;rounded=0;strokeWidth=1;align=center;verticalAlign=middle;fontFamily=Helvetica;fontSize=12;fontColor=default;resizable=1;fillColor=#222222;strokeColor=none;container=0;" parent="31jEwdzjXjWapc_lvmB_-1" vertex="1">
          <mxGeometry x="126" y="40.95" width="38" height="1" as="geometry" />
        </mxCell>
        <mxCell id="s0dWRtyi07ZF37cMcm2--128" value="" style="whiteSpace=wrap;html=1;rounded=0;strokeWidth=1;align=center;verticalAlign=middle;fontFamily=Helvetica;fontSize=12;fontColor=default;resizable=1;fillColor=#222222;strokeColor=none;container=0;" parent="31jEwdzjXjWapc_lvmB_-1" vertex="1">
          <mxGeometry x="126" y="26.950000000000003" width="38" height="1" as="geometry" />
        </mxCell>
        <mxCell id="s0dWRtyi07ZF37cMcm2--129" value="" style="rounded=1;whiteSpace=wrap;html=1;strokeColor=none;fillColor=#008a00;fontColor=#ffffff;container=0;" parent="31jEwdzjXjWapc_lvmB_-1" vertex="1">
          <mxGeometry x="179" y="36.95" width="2" height="3" as="geometry" />
        </mxCell>
        <mxCell id="s0dWRtyi07ZF37cMcm2--130" value="" style="rounded=1;whiteSpace=wrap;html=1;strokeColor=none;fillColor=#0050ef;fontColor=#ffffff;container=0;" parent="31jEwdzjXjWapc_lvmB_-1" vertex="1">
          <mxGeometry x="179" y="28.950000000000003" width="2" height="3" as="geometry" />
        </mxCell>
        <mxCell id="s0dWRtyi07ZF37cMcm2--132" value="" style="rounded=0;whiteSpace=wrap;html=1;strokeColor=none;fillColor=#222222;strokeWidth=1;movable=1;resizable=1;rotatable=1;deletable=1;editable=1;locked=0;connectable=1;container=0;" parent="31jEwdzjXjWapc_lvmB_-1" vertex="1">
          <mxGeometry x="184.5" y="9.950000000000003" width="80" height="15" as="geometry" />
        </mxCell>
        <mxCell id="s0dWRtyi07ZF37cMcm2--133" value="" style="whiteSpace=wrap;html=1;rounded=0;strokeWidth=1;align=center;verticalAlign=middle;fontFamily=Helvetica;fontSize=12;fontColor=default;resizable=1;fillColor=#333333;strokeColor=none;container=0;" parent="31jEwdzjXjWapc_lvmB_-1" vertex="1">
          <mxGeometry x="185.5" y="13.950000000000003" width="66" height="7" as="geometry" />
        </mxCell>
        <mxCell id="s0dWRtyi07ZF37cMcm2--134" value="" style="shape=hexagon;perimeter=hexagonPerimeter2;whiteSpace=wrap;html=1;fixedSize=1;rounded=0;strokeWidth=1;align=center;verticalAlign=middle;fontFamily=Helvetica;fontSize=12;fontColor=default;resizable=1;fillColor=#111111;strokeColor=none;size=3.8021390374331503;container=0;" parent="31jEwdzjXjWapc_lvmB_-1" vertex="1">
          <mxGeometry x="204.5" y="10.950000000000003" width="17" height="6" as="geometry" />
        </mxCell>
        <mxCell id="s0dWRtyi07ZF37cMcm2--135" value="" style="whiteSpace=wrap;html=1;rounded=0;strokeWidth=1;align=center;verticalAlign=middle;fontFamily=Helvetica;fontSize=12;fontColor=default;resizable=1;fillColor=#111111;strokeColor=none;container=0;" parent="31jEwdzjXjWapc_lvmB_-1" vertex="1">
          <mxGeometry x="184.5" y="9.950000000000003" width="5" height="15" as="geometry" />
        </mxCell>
        <mxCell id="s0dWRtyi07ZF37cMcm2--136" value="" style="shape=trapezoid;perimeter=trapezoidPerimeter;whiteSpace=wrap;html=1;fixedSize=1;rounded=0;strokeWidth=1;align=center;verticalAlign=middle;fontFamily=Helvetica;fontSize=12;fontColor=default;resizable=1;fillColor=#111111;strokeColor=none;rotation=90;size=3.977491961414785;container=0;" parent="31jEwdzjXjWapc_lvmB_-1" vertex="1">
          <mxGeometry x="189.5" y="9.950000000000003" width="15" height="15" as="geometry" />
        </mxCell>
        <mxCell id="s0dWRtyi07ZF37cMcm2--137" value="" style="whiteSpace=wrap;html=1;rounded=0;strokeWidth=1;align=center;verticalAlign=middle;fontFamily=Helvetica;fontSize=12;fontColor=default;resizable=1;fillColor=#111111;strokeColor=none;container=0;" parent="31jEwdzjXjWapc_lvmB_-1" vertex="1">
          <mxGeometry x="250.5" y="10.950000000000003" width="6" height="13" as="geometry" />
        </mxCell>
        <mxCell id="s0dWRtyi07ZF37cMcm2--138" value="" style="whiteSpace=wrap;html=1;rounded=0;strokeWidth=1;align=center;verticalAlign=middle;fontFamily=Helvetica;fontSize=12;fontColor=default;resizable=1;fillColor=#333333;strokeColor=none;container=0;" parent="31jEwdzjXjWapc_lvmB_-1" vertex="1">
          <mxGeometry x="256.5" y="10.950000000000003" width="4" height="13" as="geometry" />
        </mxCell>
        <mxCell id="s0dWRtyi07ZF37cMcm2--139" value="" style="rounded=1;whiteSpace=wrap;html=1;strokeWidth=1;align=center;verticalAlign=middle;fontFamily=Helvetica;fontSize=12;fontColor=default;resizable=1;fillColor=#222222;strokeColor=none;arcSize=50;gradientColor=#333333;gradientDirection=east;container=0;" parent="31jEwdzjXjWapc_lvmB_-1" vertex="1">
          <mxGeometry x="185" y="12.200000000000003" width="14" height="5" as="geometry" />
        </mxCell>
        <mxCell id="s0dWRtyi07ZF37cMcm2--140" value="" style="rounded=1;whiteSpace=wrap;html=1;strokeWidth=1;align=center;verticalAlign=middle;fontFamily=Helvetica;fontSize=12;fontColor=default;resizable=1;fillColor=#222222;strokeColor=none;arcSize=50;gradientColor=#333333;gradientDirection=east;container=0;" parent="31jEwdzjXjWapc_lvmB_-1" vertex="1">
          <mxGeometry x="185" y="17.700000000000003" width="14" height="5" as="geometry" />
        </mxCell>
        <mxCell id="s0dWRtyi07ZF37cMcm2--141" value="" style="triangle;whiteSpace=wrap;html=1;strokeColor=#111111;rounded=0;strokeWidth=0.1;align=center;verticalAlign=middle;fontFamily=Helvetica;fontSize=12;fontColor=default;resizable=1;fillColor=#333333;rotation=-180;container=0;" parent="31jEwdzjXjWapc_lvmB_-1" vertex="1">
          <mxGeometry x="257" y="15.950000000000003" width="3" height="3" as="geometry" />
        </mxCell>
        <mxCell id="s0dWRtyi07ZF37cMcm2--142" value="" style="shape=hexagon;perimeter=hexagonPerimeter2;whiteSpace=wrap;html=1;fixedSize=1;rounded=0;strokeWidth=1;align=center;verticalAlign=middle;fontFamily=Helvetica;fontSize=12;fontColor=default;resizable=1;fillColor=#111111;strokeColor=none;size=3.8021390374331503;container=0;" parent="31jEwdzjXjWapc_lvmB_-1" vertex="1">
          <mxGeometry x="204.5" y="17.950000000000003" width="17" height="6" as="geometry" />
        </mxCell>
        <mxCell id="s0dWRtyi07ZF37cMcm2--143" value="" style="shape=hexagon;perimeter=hexagonPerimeter2;whiteSpace=wrap;html=1;fixedSize=1;rounded=0;strokeWidth=1;align=center;verticalAlign=middle;fontFamily=Helvetica;fontSize=12;fontColor=default;resizable=1;fillColor=#111111;strokeColor=none;size=3.8021390374331503;container=0;" parent="31jEwdzjXjWapc_lvmB_-1" vertex="1">
          <mxGeometry x="218.5" y="14.450000000000003" width="17" height="6" as="geometry" />
        </mxCell>
        <mxCell id="s0dWRtyi07ZF37cMcm2--144" value="" style="shape=hexagon;perimeter=hexagonPerimeter2;whiteSpace=wrap;html=1;fixedSize=1;rounded=0;strokeWidth=1;align=center;verticalAlign=middle;fontFamily=Helvetica;fontSize=12;fontColor=default;resizable=1;fillColor=#111111;strokeColor=none;size=3.8021390374331503;container=0;" parent="31jEwdzjXjWapc_lvmB_-1" vertex="1">
          <mxGeometry x="232.5" y="17.950000000000003" width="17" height="6" as="geometry" />
        </mxCell>
        <mxCell id="s0dWRtyi07ZF37cMcm2--145" value="" style="shape=hexagon;perimeter=hexagonPerimeter2;whiteSpace=wrap;html=1;fixedSize=1;rounded=0;strokeWidth=1;align=center;verticalAlign=middle;fontFamily=Helvetica;fontSize=12;fontColor=default;resizable=1;fillColor=#111111;strokeColor=none;size=3.8021390374331503;container=0;" parent="31jEwdzjXjWapc_lvmB_-1" vertex="1">
          <mxGeometry x="232.5" y="10.950000000000003" width="17" height="6" as="geometry" />
        </mxCell>
        <mxCell id="s0dWRtyi07ZF37cMcm2--146" value="" style="shape=trapezoid;perimeter=trapezoidPerimeter;whiteSpace=wrap;html=1;fixedSize=1;rounded=0;strokeWidth=1;align=center;verticalAlign=middle;fontFamily=Helvetica;fontSize=12;fontColor=default;resizable=1;fillColor=#111111;strokeColor=none;size=3.799999999999997;container=0;" parent="31jEwdzjXjWapc_lvmB_-1" vertex="1">
          <mxGeometry x="218.5" y="14.450000000000003" width="17" height="3" as="geometry" />
        </mxCell>
        <mxCell id="s0dWRtyi07ZF37cMcm2--147" value="" style="shape=trapezoid;perimeter=trapezoidPerimeter;whiteSpace=wrap;html=1;fixedSize=1;rounded=0;strokeWidth=1;align=center;verticalAlign=middle;fontFamily=Helvetica;fontSize=12;fontColor=default;resizable=1;fillColor=#111111;strokeColor=none;size=3.799999999999997;container=0;" parent="31jEwdzjXjWapc_lvmB_-1" vertex="1">
          <mxGeometry x="218.5" y="21.450000000000003" width="17" height="3" as="geometry" />
        </mxCell>
        <mxCell id="s0dWRtyi07ZF37cMcm2--148" value="" style="shape=trapezoid;perimeter=trapezoidPerimeter;whiteSpace=wrap;html=1;fixedSize=1;rounded=0;strokeWidth=1;align=center;verticalAlign=middle;fontFamily=Helvetica;fontSize=12;fontColor=default;resizable=1;fillColor=#111111;strokeColor=none;size=3.799999999999997;flipV=1;container=0;" parent="31jEwdzjXjWapc_lvmB_-1" vertex="1">
          <mxGeometry x="218.5" y="10.450000000000003" width="17" height="3" as="geometry" />
        </mxCell>
        <mxCell id="s0dWRtyi07ZF37cMcm2--149" value="" style="whiteSpace=wrap;html=1;rounded=0;strokeWidth=1;align=center;verticalAlign=middle;fontFamily=Helvetica;fontSize=12;fontColor=default;resizable=1;fillColor=#222222;strokeColor=none;container=0;" parent="31jEwdzjXjWapc_lvmB_-1" vertex="1">
          <mxGeometry x="208" y="23.950000000000003" width="38" height="1" as="geometry" />
        </mxCell>
        <mxCell id="s0dWRtyi07ZF37cMcm2--150" value="" style="whiteSpace=wrap;html=1;rounded=0;strokeWidth=1;align=center;verticalAlign=middle;fontFamily=Helvetica;fontSize=12;fontColor=default;resizable=1;fillColor=#222222;strokeColor=none;container=0;" parent="31jEwdzjXjWapc_lvmB_-1" vertex="1">
          <mxGeometry x="208" y="9.950000000000003" width="38" height="1" as="geometry" />
        </mxCell>
        <mxCell id="s0dWRtyi07ZF37cMcm2--151" value="" style="rounded=1;whiteSpace=wrap;html=1;strokeColor=none;fillColor=#008a00;fontColor=#ffffff;container=0;" parent="31jEwdzjXjWapc_lvmB_-1" vertex="1">
          <mxGeometry x="261" y="19.950000000000003" width="2" height="3" as="geometry" />
        </mxCell>
        <mxCell id="s0dWRtyi07ZF37cMcm2--152" value="" style="rounded=1;whiteSpace=wrap;html=1;strokeColor=none;fillColor=#0050ef;fontColor=#ffffff;container=0;" parent="31jEwdzjXjWapc_lvmB_-1" vertex="1">
          <mxGeometry x="261" y="11.950000000000003" width="2" height="3" as="geometry" />
        </mxCell>
        <mxCell id="s0dWRtyi07ZF37cMcm2--154" value="" style="rounded=0;whiteSpace=wrap;html=1;strokeColor=none;fillColor=#222222;strokeWidth=1;movable=1;resizable=1;rotatable=1;deletable=1;editable=1;locked=0;connectable=1;container=0;" parent="31jEwdzjXjWapc_lvmB_-1" vertex="1">
          <mxGeometry x="266.5" y="9.950000000000003" width="80" height="15" as="geometry" />
        </mxCell>
        <mxCell id="s0dWRtyi07ZF37cMcm2--155" value="" style="whiteSpace=wrap;html=1;rounded=0;strokeWidth=1;align=center;verticalAlign=middle;fontFamily=Helvetica;fontSize=12;fontColor=default;resizable=1;fillColor=#333333;strokeColor=none;container=0;" parent="31jEwdzjXjWapc_lvmB_-1" vertex="1">
          <mxGeometry x="267.5" y="13.950000000000003" width="66" height="7" as="geometry" />
        </mxCell>
        <mxCell id="s0dWRtyi07ZF37cMcm2--156" value="" style="shape=hexagon;perimeter=hexagonPerimeter2;whiteSpace=wrap;html=1;fixedSize=1;rounded=0;strokeWidth=1;align=center;verticalAlign=middle;fontFamily=Helvetica;fontSize=12;fontColor=default;resizable=1;fillColor=#111111;strokeColor=none;size=3.8021390374331503;container=0;" parent="31jEwdzjXjWapc_lvmB_-1" vertex="1">
          <mxGeometry x="286.5" y="10.950000000000003" width="17" height="6" as="geometry" />
        </mxCell>
        <mxCell id="s0dWRtyi07ZF37cMcm2--157" value="" style="whiteSpace=wrap;html=1;rounded=0;strokeWidth=1;align=center;verticalAlign=middle;fontFamily=Helvetica;fontSize=12;fontColor=default;resizable=1;fillColor=#111111;strokeColor=none;container=0;" parent="31jEwdzjXjWapc_lvmB_-1" vertex="1">
          <mxGeometry x="266.5" y="9.950000000000003" width="5" height="15" as="geometry" />
        </mxCell>
        <mxCell id="s0dWRtyi07ZF37cMcm2--158" value="" style="shape=trapezoid;perimeter=trapezoidPerimeter;whiteSpace=wrap;html=1;fixedSize=1;rounded=0;strokeWidth=1;align=center;verticalAlign=middle;fontFamily=Helvetica;fontSize=12;fontColor=default;resizable=1;fillColor=#111111;strokeColor=none;rotation=90;size=3.977491961414785;container=0;" parent="31jEwdzjXjWapc_lvmB_-1" vertex="1">
          <mxGeometry x="271.5" y="9.950000000000003" width="15" height="15" as="geometry" />
        </mxCell>
        <mxCell id="s0dWRtyi07ZF37cMcm2--159" value="" style="whiteSpace=wrap;html=1;rounded=0;strokeWidth=1;align=center;verticalAlign=middle;fontFamily=Helvetica;fontSize=12;fontColor=default;resizable=1;fillColor=#111111;strokeColor=none;container=0;" parent="31jEwdzjXjWapc_lvmB_-1" vertex="1">
          <mxGeometry x="332.5" y="10.950000000000003" width="6" height="13" as="geometry" />
        </mxCell>
        <mxCell id="s0dWRtyi07ZF37cMcm2--160" value="" style="whiteSpace=wrap;html=1;rounded=0;strokeWidth=1;align=center;verticalAlign=middle;fontFamily=Helvetica;fontSize=12;fontColor=default;resizable=1;fillColor=#333333;strokeColor=none;container=0;" parent="31jEwdzjXjWapc_lvmB_-1" vertex="1">
          <mxGeometry x="338.5" y="10.950000000000003" width="4" height="13" as="geometry" />
        </mxCell>
        <mxCell id="s0dWRtyi07ZF37cMcm2--161" value="" style="rounded=1;whiteSpace=wrap;html=1;strokeWidth=1;align=center;verticalAlign=middle;fontFamily=Helvetica;fontSize=12;fontColor=default;resizable=1;fillColor=#222222;strokeColor=none;arcSize=50;gradientColor=#333333;gradientDirection=east;container=0;" parent="31jEwdzjXjWapc_lvmB_-1" vertex="1">
          <mxGeometry x="267" y="12.200000000000003" width="14" height="5" as="geometry" />
        </mxCell>
        <mxCell id="s0dWRtyi07ZF37cMcm2--162" value="" style="rounded=1;whiteSpace=wrap;html=1;strokeWidth=1;align=center;verticalAlign=middle;fontFamily=Helvetica;fontSize=12;fontColor=default;resizable=1;fillColor=#222222;strokeColor=none;arcSize=50;gradientColor=#333333;gradientDirection=east;container=0;" parent="31jEwdzjXjWapc_lvmB_-1" vertex="1">
          <mxGeometry x="267" y="17.700000000000003" width="14" height="5" as="geometry" />
        </mxCell>
        <mxCell id="s0dWRtyi07ZF37cMcm2--163" value="" style="triangle;whiteSpace=wrap;html=1;strokeColor=#111111;rounded=0;strokeWidth=0.1;align=center;verticalAlign=middle;fontFamily=Helvetica;fontSize=12;fontColor=default;resizable=1;fillColor=#333333;rotation=-180;container=0;" parent="31jEwdzjXjWapc_lvmB_-1" vertex="1">
          <mxGeometry x="339" y="15.950000000000003" width="3" height="3" as="geometry" />
        </mxCell>
        <mxCell id="s0dWRtyi07ZF37cMcm2--164" value="" style="shape=hexagon;perimeter=hexagonPerimeter2;whiteSpace=wrap;html=1;fixedSize=1;rounded=0;strokeWidth=1;align=center;verticalAlign=middle;fontFamily=Helvetica;fontSize=12;fontColor=default;resizable=1;fillColor=#111111;strokeColor=none;size=3.8021390374331503;container=0;" parent="31jEwdzjXjWapc_lvmB_-1" vertex="1">
          <mxGeometry x="286.5" y="17.950000000000003" width="17" height="6" as="geometry" />
        </mxCell>
        <mxCell id="s0dWRtyi07ZF37cMcm2--165" value="" style="shape=hexagon;perimeter=hexagonPerimeter2;whiteSpace=wrap;html=1;fixedSize=1;rounded=0;strokeWidth=1;align=center;verticalAlign=middle;fontFamily=Helvetica;fontSize=12;fontColor=default;resizable=1;fillColor=#111111;strokeColor=none;size=3.8021390374331503;container=0;" parent="31jEwdzjXjWapc_lvmB_-1" vertex="1">
          <mxGeometry x="300.5" y="14.450000000000003" width="17" height="6" as="geometry" />
        </mxCell>
        <mxCell id="s0dWRtyi07ZF37cMcm2--166" value="" style="shape=hexagon;perimeter=hexagonPerimeter2;whiteSpace=wrap;html=1;fixedSize=1;rounded=0;strokeWidth=1;align=center;verticalAlign=middle;fontFamily=Helvetica;fontSize=12;fontColor=default;resizable=1;fillColor=#111111;strokeColor=none;size=3.8021390374331503;container=0;" parent="31jEwdzjXjWapc_lvmB_-1" vertex="1">
          <mxGeometry x="314.5" y="17.950000000000003" width="17" height="6" as="geometry" />
        </mxCell>
        <mxCell id="s0dWRtyi07ZF37cMcm2--167" value="" style="shape=hexagon;perimeter=hexagonPerimeter2;whiteSpace=wrap;html=1;fixedSize=1;rounded=0;strokeWidth=1;align=center;verticalAlign=middle;fontFamily=Helvetica;fontSize=12;fontColor=default;resizable=1;fillColor=#111111;strokeColor=none;size=3.8021390374331503;container=0;" parent="31jEwdzjXjWapc_lvmB_-1" vertex="1">
          <mxGeometry x="314.5" y="10.950000000000003" width="17" height="6" as="geometry" />
        </mxCell>
        <mxCell id="s0dWRtyi07ZF37cMcm2--168" value="" style="shape=trapezoid;perimeter=trapezoidPerimeter;whiteSpace=wrap;html=1;fixedSize=1;rounded=0;strokeWidth=1;align=center;verticalAlign=middle;fontFamily=Helvetica;fontSize=12;fontColor=default;resizable=1;fillColor=#111111;strokeColor=none;size=3.799999999999997;container=0;" parent="31jEwdzjXjWapc_lvmB_-1" vertex="1">
          <mxGeometry x="300.5" y="14.450000000000003" width="17" height="3" as="geometry" />
        </mxCell>
        <mxCell id="s0dWRtyi07ZF37cMcm2--169" value="" style="shape=trapezoid;perimeter=trapezoidPerimeter;whiteSpace=wrap;html=1;fixedSize=1;rounded=0;strokeWidth=1;align=center;verticalAlign=middle;fontFamily=Helvetica;fontSize=12;fontColor=default;resizable=1;fillColor=#111111;strokeColor=none;size=3.799999999999997;container=0;" parent="31jEwdzjXjWapc_lvmB_-1" vertex="1">
          <mxGeometry x="300.5" y="21.450000000000003" width="17" height="3" as="geometry" />
        </mxCell>
        <mxCell id="s0dWRtyi07ZF37cMcm2--170" value="" style="shape=trapezoid;perimeter=trapezoidPerimeter;whiteSpace=wrap;html=1;fixedSize=1;rounded=0;strokeWidth=1;align=center;verticalAlign=middle;fontFamily=Helvetica;fontSize=12;fontColor=default;resizable=1;fillColor=#111111;strokeColor=none;size=3.799999999999997;flipV=1;container=0;" parent="31jEwdzjXjWapc_lvmB_-1" vertex="1">
          <mxGeometry x="300.5" y="10.450000000000003" width="17" height="3" as="geometry" />
        </mxCell>
        <mxCell id="s0dWRtyi07ZF37cMcm2--171" value="" style="whiteSpace=wrap;html=1;rounded=0;strokeWidth=1;align=center;verticalAlign=middle;fontFamily=Helvetica;fontSize=12;fontColor=default;resizable=1;fillColor=#222222;strokeColor=none;container=0;" parent="31jEwdzjXjWapc_lvmB_-1" vertex="1">
          <mxGeometry x="290" y="23.950000000000003" width="38" height="1" as="geometry" />
        </mxCell>
        <mxCell id="s0dWRtyi07ZF37cMcm2--172" value="" style="whiteSpace=wrap;html=1;rounded=0;strokeWidth=1;align=center;verticalAlign=middle;fontFamily=Helvetica;fontSize=12;fontColor=default;resizable=1;fillColor=#222222;strokeColor=none;container=0;" parent="31jEwdzjXjWapc_lvmB_-1" vertex="1">
          <mxGeometry x="290" y="9.950000000000003" width="38" height="1" as="geometry" />
        </mxCell>
        <mxCell id="s0dWRtyi07ZF37cMcm2--173" value="" style="rounded=1;whiteSpace=wrap;html=1;strokeColor=none;fillColor=#008a00;fontColor=#ffffff;container=0;" parent="31jEwdzjXjWapc_lvmB_-1" vertex="1">
          <mxGeometry x="343" y="19.950000000000003" width="2" height="3" as="geometry" />
        </mxCell>
        <mxCell id="s0dWRtyi07ZF37cMcm2--174" value="" style="rounded=1;whiteSpace=wrap;html=1;strokeColor=none;fillColor=#0050ef;fontColor=#ffffff;container=0;" parent="31jEwdzjXjWapc_lvmB_-1" vertex="1">
          <mxGeometry x="343" y="11.950000000000003" width="2" height="3" as="geometry" />
        </mxCell>
        <mxCell id="s0dWRtyi07ZF37cMcm2--176" value="" style="rounded=0;whiteSpace=wrap;html=1;strokeColor=none;fillColor=#222222;strokeWidth=1;movable=1;resizable=1;rotatable=1;deletable=1;editable=1;locked=0;connectable=1;container=0;" parent="31jEwdzjXjWapc_lvmB_-1" vertex="1">
          <mxGeometry x="184.5" y="26.950000000000003" width="80" height="15" as="geometry" />
        </mxCell>
        <mxCell id="s0dWRtyi07ZF37cMcm2--177" value="" style="whiteSpace=wrap;html=1;rounded=0;strokeWidth=1;align=center;verticalAlign=middle;fontFamily=Helvetica;fontSize=12;fontColor=default;resizable=1;fillColor=#333333;strokeColor=none;container=0;" parent="31jEwdzjXjWapc_lvmB_-1" vertex="1">
          <mxGeometry x="185.5" y="30.950000000000003" width="66" height="7" as="geometry" />
        </mxCell>
        <mxCell id="s0dWRtyi07ZF37cMcm2--178" value="" style="shape=hexagon;perimeter=hexagonPerimeter2;whiteSpace=wrap;html=1;fixedSize=1;rounded=0;strokeWidth=1;align=center;verticalAlign=middle;fontFamily=Helvetica;fontSize=12;fontColor=default;resizable=1;fillColor=#111111;strokeColor=none;size=3.8021390374331503;container=0;" parent="31jEwdzjXjWapc_lvmB_-1" vertex="1">
          <mxGeometry x="204.5" y="27.950000000000003" width="17" height="6" as="geometry" />
        </mxCell>
        <mxCell id="s0dWRtyi07ZF37cMcm2--179" value="" style="whiteSpace=wrap;html=1;rounded=0;strokeWidth=1;align=center;verticalAlign=middle;fontFamily=Helvetica;fontSize=12;fontColor=default;resizable=1;fillColor=#111111;strokeColor=none;container=0;" parent="31jEwdzjXjWapc_lvmB_-1" vertex="1">
          <mxGeometry x="184.5" y="26.950000000000003" width="5" height="15" as="geometry" />
        </mxCell>
        <mxCell id="s0dWRtyi07ZF37cMcm2--180" value="" style="shape=trapezoid;perimeter=trapezoidPerimeter;whiteSpace=wrap;html=1;fixedSize=1;rounded=0;strokeWidth=1;align=center;verticalAlign=middle;fontFamily=Helvetica;fontSize=12;fontColor=default;resizable=1;fillColor=#111111;strokeColor=none;rotation=90;size=3.977491961414785;container=0;" parent="31jEwdzjXjWapc_lvmB_-1" vertex="1">
          <mxGeometry x="189.5" y="26.950000000000003" width="15" height="15" as="geometry" />
        </mxCell>
        <mxCell id="s0dWRtyi07ZF37cMcm2--181" value="" style="whiteSpace=wrap;html=1;rounded=0;strokeWidth=1;align=center;verticalAlign=middle;fontFamily=Helvetica;fontSize=12;fontColor=default;resizable=1;fillColor=#111111;strokeColor=none;container=0;" parent="31jEwdzjXjWapc_lvmB_-1" vertex="1">
          <mxGeometry x="250.5" y="27.950000000000003" width="6" height="13" as="geometry" />
        </mxCell>
        <mxCell id="s0dWRtyi07ZF37cMcm2--182" value="" style="whiteSpace=wrap;html=1;rounded=0;strokeWidth=1;align=center;verticalAlign=middle;fontFamily=Helvetica;fontSize=12;fontColor=default;resizable=1;fillColor=#333333;strokeColor=none;container=0;" parent="31jEwdzjXjWapc_lvmB_-1" vertex="1">
          <mxGeometry x="256.5" y="27.950000000000003" width="4" height="13" as="geometry" />
        </mxCell>
        <mxCell id="s0dWRtyi07ZF37cMcm2--183" value="" style="rounded=1;whiteSpace=wrap;html=1;strokeWidth=1;align=center;verticalAlign=middle;fontFamily=Helvetica;fontSize=12;fontColor=default;resizable=1;fillColor=#222222;strokeColor=none;arcSize=50;gradientColor=#333333;gradientDirection=east;container=0;" parent="31jEwdzjXjWapc_lvmB_-1" vertex="1">
          <mxGeometry x="185" y="29.200000000000003" width="14" height="5" as="geometry" />
        </mxCell>
        <mxCell id="s0dWRtyi07ZF37cMcm2--184" value="" style="rounded=1;whiteSpace=wrap;html=1;strokeWidth=1;align=center;verticalAlign=middle;fontFamily=Helvetica;fontSize=12;fontColor=default;resizable=1;fillColor=#222222;strokeColor=none;arcSize=50;gradientColor=#333333;gradientDirection=east;container=0;" parent="31jEwdzjXjWapc_lvmB_-1" vertex="1">
          <mxGeometry x="185" y="34.7" width="14" height="5" as="geometry" />
        </mxCell>
        <mxCell id="s0dWRtyi07ZF37cMcm2--185" value="" style="triangle;whiteSpace=wrap;html=1;strokeColor=#111111;rounded=0;strokeWidth=0.1;align=center;verticalAlign=middle;fontFamily=Helvetica;fontSize=12;fontColor=default;resizable=1;fillColor=#333333;rotation=-180;container=0;" parent="31jEwdzjXjWapc_lvmB_-1" vertex="1">
          <mxGeometry x="257" y="32.95" width="3" height="3" as="geometry" />
        </mxCell>
        <mxCell id="s0dWRtyi07ZF37cMcm2--186" value="" style="shape=hexagon;perimeter=hexagonPerimeter2;whiteSpace=wrap;html=1;fixedSize=1;rounded=0;strokeWidth=1;align=center;verticalAlign=middle;fontFamily=Helvetica;fontSize=12;fontColor=default;resizable=1;fillColor=#111111;strokeColor=none;size=3.8021390374331503;container=0;" parent="31jEwdzjXjWapc_lvmB_-1" vertex="1">
          <mxGeometry x="204.5" y="34.95" width="17" height="6" as="geometry" />
        </mxCell>
        <mxCell id="s0dWRtyi07ZF37cMcm2--187" value="" style="shape=hexagon;perimeter=hexagonPerimeter2;whiteSpace=wrap;html=1;fixedSize=1;rounded=0;strokeWidth=1;align=center;verticalAlign=middle;fontFamily=Helvetica;fontSize=12;fontColor=default;resizable=1;fillColor=#111111;strokeColor=none;size=3.8021390374331503;container=0;" parent="31jEwdzjXjWapc_lvmB_-1" vertex="1">
          <mxGeometry x="218.5" y="31.450000000000003" width="17" height="6" as="geometry" />
        </mxCell>
        <mxCell id="s0dWRtyi07ZF37cMcm2--188" value="" style="shape=hexagon;perimeter=hexagonPerimeter2;whiteSpace=wrap;html=1;fixedSize=1;rounded=0;strokeWidth=1;align=center;verticalAlign=middle;fontFamily=Helvetica;fontSize=12;fontColor=default;resizable=1;fillColor=#111111;strokeColor=none;size=3.8021390374331503;container=0;" parent="31jEwdzjXjWapc_lvmB_-1" vertex="1">
          <mxGeometry x="232.5" y="34.95" width="17" height="6" as="geometry" />
        </mxCell>
        <mxCell id="s0dWRtyi07ZF37cMcm2--189" value="" style="shape=hexagon;perimeter=hexagonPerimeter2;whiteSpace=wrap;html=1;fixedSize=1;rounded=0;strokeWidth=1;align=center;verticalAlign=middle;fontFamily=Helvetica;fontSize=12;fontColor=default;resizable=1;fillColor=#111111;strokeColor=none;size=3.8021390374331503;container=0;" parent="31jEwdzjXjWapc_lvmB_-1" vertex="1">
          <mxGeometry x="232.5" y="27.950000000000003" width="17" height="6" as="geometry" />
        </mxCell>
        <mxCell id="s0dWRtyi07ZF37cMcm2--190" value="" style="shape=trapezoid;perimeter=trapezoidPerimeter;whiteSpace=wrap;html=1;fixedSize=1;rounded=0;strokeWidth=1;align=center;verticalAlign=middle;fontFamily=Helvetica;fontSize=12;fontColor=default;resizable=1;fillColor=#111111;strokeColor=none;size=3.799999999999997;container=0;" parent="31jEwdzjXjWapc_lvmB_-1" vertex="1">
          <mxGeometry x="218.5" y="31.450000000000003" width="17" height="3" as="geometry" />
        </mxCell>
        <mxCell id="s0dWRtyi07ZF37cMcm2--191" value="" style="shape=trapezoid;perimeter=trapezoidPerimeter;whiteSpace=wrap;html=1;fixedSize=1;rounded=0;strokeWidth=1;align=center;verticalAlign=middle;fontFamily=Helvetica;fontSize=12;fontColor=default;resizable=1;fillColor=#111111;strokeColor=none;size=3.799999999999997;container=0;" parent="31jEwdzjXjWapc_lvmB_-1" vertex="1">
          <mxGeometry x="218.5" y="38.45" width="17" height="3" as="geometry" />
        </mxCell>
        <mxCell id="s0dWRtyi07ZF37cMcm2--192" value="" style="shape=trapezoid;perimeter=trapezoidPerimeter;whiteSpace=wrap;html=1;fixedSize=1;rounded=0;strokeWidth=1;align=center;verticalAlign=middle;fontFamily=Helvetica;fontSize=12;fontColor=default;resizable=1;fillColor=#111111;strokeColor=none;size=3.799999999999997;flipV=1;container=0;" parent="31jEwdzjXjWapc_lvmB_-1" vertex="1">
          <mxGeometry x="218.5" y="27.450000000000003" width="17" height="3" as="geometry" />
        </mxCell>
        <mxCell id="s0dWRtyi07ZF37cMcm2--193" value="" style="whiteSpace=wrap;html=1;rounded=0;strokeWidth=1;align=center;verticalAlign=middle;fontFamily=Helvetica;fontSize=12;fontColor=default;resizable=1;fillColor=#222222;strokeColor=none;container=0;" parent="31jEwdzjXjWapc_lvmB_-1" vertex="1">
          <mxGeometry x="208" y="40.95" width="38" height="1" as="geometry" />
        </mxCell>
        <mxCell id="s0dWRtyi07ZF37cMcm2--194" value="" style="whiteSpace=wrap;html=1;rounded=0;strokeWidth=1;align=center;verticalAlign=middle;fontFamily=Helvetica;fontSize=12;fontColor=default;resizable=1;fillColor=#222222;strokeColor=none;container=0;" parent="31jEwdzjXjWapc_lvmB_-1" vertex="1">
          <mxGeometry x="208" y="26.950000000000003" width="38" height="1" as="geometry" />
        </mxCell>
        <mxCell id="s0dWRtyi07ZF37cMcm2--195" value="" style="rounded=1;whiteSpace=wrap;html=1;strokeColor=none;fillColor=#008a00;fontColor=#ffffff;container=0;" parent="31jEwdzjXjWapc_lvmB_-1" vertex="1">
          <mxGeometry x="261" y="36.95" width="2" height="3" as="geometry" />
        </mxCell>
        <mxCell id="s0dWRtyi07ZF37cMcm2--196" value="" style="rounded=1;whiteSpace=wrap;html=1;strokeColor=none;fillColor=#0050ef;fontColor=#ffffff;container=0;" parent="31jEwdzjXjWapc_lvmB_-1" vertex="1">
          <mxGeometry x="261" y="28.950000000000003" width="2" height="3" as="geometry" />
        </mxCell>
        <mxCell id="s0dWRtyi07ZF37cMcm2--198" value="" style="rounded=0;whiteSpace=wrap;html=1;strokeColor=none;fillColor=#222222;strokeWidth=1;movable=1;resizable=1;rotatable=1;deletable=1;editable=1;locked=0;connectable=1;container=0;" parent="31jEwdzjXjWapc_lvmB_-1" vertex="1">
          <mxGeometry x="266.5" y="26.950000000000003" width="80" height="15" as="geometry" />
        </mxCell>
        <mxCell id="s0dWRtyi07ZF37cMcm2--199" value="" style="whiteSpace=wrap;html=1;rounded=0;strokeWidth=1;align=center;verticalAlign=middle;fontFamily=Helvetica;fontSize=12;fontColor=default;resizable=1;fillColor=#333333;strokeColor=none;container=0;" parent="31jEwdzjXjWapc_lvmB_-1" vertex="1">
          <mxGeometry x="267.5" y="30.950000000000003" width="66" height="7" as="geometry" />
        </mxCell>
        <mxCell id="s0dWRtyi07ZF37cMcm2--200" value="" style="shape=hexagon;perimeter=hexagonPerimeter2;whiteSpace=wrap;html=1;fixedSize=1;rounded=0;strokeWidth=1;align=center;verticalAlign=middle;fontFamily=Helvetica;fontSize=12;fontColor=default;resizable=1;fillColor=#111111;strokeColor=none;size=3.8021390374331503;container=0;" parent="31jEwdzjXjWapc_lvmB_-1" vertex="1">
          <mxGeometry x="286.5" y="27.950000000000003" width="17" height="6" as="geometry" />
        </mxCell>
        <mxCell id="s0dWRtyi07ZF37cMcm2--201" value="" style="whiteSpace=wrap;html=1;rounded=0;strokeWidth=1;align=center;verticalAlign=middle;fontFamily=Helvetica;fontSize=12;fontColor=default;resizable=1;fillColor=#111111;strokeColor=none;container=0;" parent="31jEwdzjXjWapc_lvmB_-1" vertex="1">
          <mxGeometry x="266.5" y="26.950000000000003" width="5" height="15" as="geometry" />
        </mxCell>
        <mxCell id="s0dWRtyi07ZF37cMcm2--202" value="" style="shape=trapezoid;perimeter=trapezoidPerimeter;whiteSpace=wrap;html=1;fixedSize=1;rounded=0;strokeWidth=1;align=center;verticalAlign=middle;fontFamily=Helvetica;fontSize=12;fontColor=default;resizable=1;fillColor=#111111;strokeColor=none;rotation=90;size=3.977491961414785;container=0;" parent="31jEwdzjXjWapc_lvmB_-1" vertex="1">
          <mxGeometry x="271.5" y="26.950000000000003" width="15" height="15" as="geometry" />
        </mxCell>
        <mxCell id="s0dWRtyi07ZF37cMcm2--203" value="" style="whiteSpace=wrap;html=1;rounded=0;strokeWidth=1;align=center;verticalAlign=middle;fontFamily=Helvetica;fontSize=12;fontColor=default;resizable=1;fillColor=#111111;strokeColor=none;container=0;" parent="31jEwdzjXjWapc_lvmB_-1" vertex="1">
          <mxGeometry x="332.5" y="27.950000000000003" width="6" height="13" as="geometry" />
        </mxCell>
        <mxCell id="s0dWRtyi07ZF37cMcm2--204" value="" style="whiteSpace=wrap;html=1;rounded=0;strokeWidth=1;align=center;verticalAlign=middle;fontFamily=Helvetica;fontSize=12;fontColor=default;resizable=1;fillColor=#333333;strokeColor=none;container=0;" parent="31jEwdzjXjWapc_lvmB_-1" vertex="1">
          <mxGeometry x="338.5" y="27.950000000000003" width="4" height="13" as="geometry" />
        </mxCell>
        <mxCell id="s0dWRtyi07ZF37cMcm2--205" value="" style="rounded=1;whiteSpace=wrap;html=1;strokeWidth=1;align=center;verticalAlign=middle;fontFamily=Helvetica;fontSize=12;fontColor=default;resizable=1;fillColor=#222222;strokeColor=none;arcSize=50;gradientColor=#333333;gradientDirection=east;container=0;" parent="31jEwdzjXjWapc_lvmB_-1" vertex="1">
          <mxGeometry x="267" y="29.200000000000003" width="14" height="5" as="geometry" />
        </mxCell>
        <mxCell id="s0dWRtyi07ZF37cMcm2--206" value="" style="rounded=1;whiteSpace=wrap;html=1;strokeWidth=1;align=center;verticalAlign=middle;fontFamily=Helvetica;fontSize=12;fontColor=default;resizable=1;fillColor=#222222;strokeColor=none;arcSize=50;gradientColor=#333333;gradientDirection=east;container=0;" parent="31jEwdzjXjWapc_lvmB_-1" vertex="1">
          <mxGeometry x="267" y="34.7" width="14" height="5" as="geometry" />
        </mxCell>
        <mxCell id="s0dWRtyi07ZF37cMcm2--207" value="" style="triangle;whiteSpace=wrap;html=1;strokeColor=#111111;rounded=0;strokeWidth=0.1;align=center;verticalAlign=middle;fontFamily=Helvetica;fontSize=12;fontColor=default;resizable=1;fillColor=#333333;rotation=-180;container=0;" parent="31jEwdzjXjWapc_lvmB_-1" vertex="1">
          <mxGeometry x="339" y="32.95" width="3" height="3" as="geometry" />
        </mxCell>
        <mxCell id="s0dWRtyi07ZF37cMcm2--208" value="" style="shape=hexagon;perimeter=hexagonPerimeter2;whiteSpace=wrap;html=1;fixedSize=1;rounded=0;strokeWidth=1;align=center;verticalAlign=middle;fontFamily=Helvetica;fontSize=12;fontColor=default;resizable=1;fillColor=#111111;strokeColor=none;size=3.8021390374331503;container=0;" parent="31jEwdzjXjWapc_lvmB_-1" vertex="1">
          <mxGeometry x="286.5" y="34.95" width="17" height="6" as="geometry" />
        </mxCell>
        <mxCell id="s0dWRtyi07ZF37cMcm2--209" value="" style="shape=hexagon;perimeter=hexagonPerimeter2;whiteSpace=wrap;html=1;fixedSize=1;rounded=0;strokeWidth=1;align=center;verticalAlign=middle;fontFamily=Helvetica;fontSize=12;fontColor=default;resizable=1;fillColor=#111111;strokeColor=none;size=3.8021390374331503;container=0;" parent="31jEwdzjXjWapc_lvmB_-1" vertex="1">
          <mxGeometry x="300.5" y="31.450000000000003" width="17" height="6" as="geometry" />
        </mxCell>
        <mxCell id="s0dWRtyi07ZF37cMcm2--210" value="" style="shape=hexagon;perimeter=hexagonPerimeter2;whiteSpace=wrap;html=1;fixedSize=1;rounded=0;strokeWidth=1;align=center;verticalAlign=middle;fontFamily=Helvetica;fontSize=12;fontColor=default;resizable=1;fillColor=#111111;strokeColor=none;size=3.8021390374331503;container=0;" parent="31jEwdzjXjWapc_lvmB_-1" vertex="1">
          <mxGeometry x="314.5" y="34.95" width="17" height="6" as="geometry" />
        </mxCell>
        <mxCell id="s0dWRtyi07ZF37cMcm2--211" value="" style="shape=hexagon;perimeter=hexagonPerimeter2;whiteSpace=wrap;html=1;fixedSize=1;rounded=0;strokeWidth=1;align=center;verticalAlign=middle;fontFamily=Helvetica;fontSize=12;fontColor=default;resizable=1;fillColor=#111111;strokeColor=none;size=3.8021390374331503;container=0;" parent="31jEwdzjXjWapc_lvmB_-1" vertex="1">
          <mxGeometry x="314.5" y="27.950000000000003" width="17" height="6" as="geometry" />
        </mxCell>
        <mxCell id="s0dWRtyi07ZF37cMcm2--212" value="" style="shape=trapezoid;perimeter=trapezoidPerimeter;whiteSpace=wrap;html=1;fixedSize=1;rounded=0;strokeWidth=1;align=center;verticalAlign=middle;fontFamily=Helvetica;fontSize=12;fontColor=default;resizable=1;fillColor=#111111;strokeColor=none;size=3.799999999999997;container=0;" parent="31jEwdzjXjWapc_lvmB_-1" vertex="1">
          <mxGeometry x="300.5" y="31.450000000000003" width="17" height="3" as="geometry" />
        </mxCell>
        <mxCell id="s0dWRtyi07ZF37cMcm2--213" value="" style="shape=trapezoid;perimeter=trapezoidPerimeter;whiteSpace=wrap;html=1;fixedSize=1;rounded=0;strokeWidth=1;align=center;verticalAlign=middle;fontFamily=Helvetica;fontSize=12;fontColor=default;resizable=1;fillColor=#111111;strokeColor=none;size=3.799999999999997;container=0;" parent="31jEwdzjXjWapc_lvmB_-1" vertex="1">
          <mxGeometry x="300.5" y="38.45" width="17" height="3" as="geometry" />
        </mxCell>
        <mxCell id="s0dWRtyi07ZF37cMcm2--214" value="" style="shape=trapezoid;perimeter=trapezoidPerimeter;whiteSpace=wrap;html=1;fixedSize=1;rounded=0;strokeWidth=1;align=center;verticalAlign=middle;fontFamily=Helvetica;fontSize=12;fontColor=default;resizable=1;fillColor=#111111;strokeColor=none;size=3.799999999999997;flipV=1;container=0;" parent="31jEwdzjXjWapc_lvmB_-1" vertex="1">
          <mxGeometry x="300.5" y="27.450000000000003" width="17" height="3" as="geometry" />
        </mxCell>
        <mxCell id="s0dWRtyi07ZF37cMcm2--215" value="" style="whiteSpace=wrap;html=1;rounded=0;strokeWidth=1;align=center;verticalAlign=middle;fontFamily=Helvetica;fontSize=12;fontColor=default;resizable=1;fillColor=#222222;strokeColor=none;container=0;" parent="31jEwdzjXjWapc_lvmB_-1" vertex="1">
          <mxGeometry x="290" y="40.95" width="38" height="1" as="geometry" />
        </mxCell>
        <mxCell id="s0dWRtyi07ZF37cMcm2--216" value="" style="whiteSpace=wrap;html=1;rounded=0;strokeWidth=1;align=center;verticalAlign=middle;fontFamily=Helvetica;fontSize=12;fontColor=default;resizable=1;fillColor=#222222;strokeColor=none;container=0;" parent="31jEwdzjXjWapc_lvmB_-1" vertex="1">
          <mxGeometry x="290" y="26.950000000000003" width="38" height="1" as="geometry" />
        </mxCell>
        <mxCell id="s0dWRtyi07ZF37cMcm2--217" value="" style="rounded=1;whiteSpace=wrap;html=1;strokeColor=none;fillColor=#008a00;fontColor=#ffffff;container=0;" parent="31jEwdzjXjWapc_lvmB_-1" vertex="1">
          <mxGeometry x="343" y="36.95" width="2" height="3" as="geometry" />
        </mxCell>
        <mxCell id="s0dWRtyi07ZF37cMcm2--218" value="" style="rounded=1;whiteSpace=wrap;html=1;strokeColor=none;fillColor=#0050ef;fontColor=#ffffff;container=0;" parent="31jEwdzjXjWapc_lvmB_-1" vertex="1">
          <mxGeometry x="343" y="28.950000000000003" width="2" height="3" as="geometry" />
        </mxCell>
        <mxCell id="s0dWRtyi07ZF37cMcm2--220" value="" style="rounded=0;whiteSpace=wrap;html=1;strokeColor=none;fillColor=#222222;strokeWidth=1;movable=1;resizable=1;rotatable=1;deletable=1;editable=1;locked=0;connectable=1;container=0;" parent="31jEwdzjXjWapc_lvmB_-1" vertex="1">
          <mxGeometry x="348.5" y="9.950000000000003" width="80" height="15" as="geometry" />
        </mxCell>
        <mxCell id="s0dWRtyi07ZF37cMcm2--221" value="" style="whiteSpace=wrap;html=1;rounded=0;strokeWidth=1;align=center;verticalAlign=middle;fontFamily=Helvetica;fontSize=12;fontColor=default;resizable=1;fillColor=#333333;strokeColor=none;container=0;" parent="31jEwdzjXjWapc_lvmB_-1" vertex="1">
          <mxGeometry x="349.5" y="13.950000000000003" width="66" height="7" as="geometry" />
        </mxCell>
        <mxCell id="s0dWRtyi07ZF37cMcm2--222" value="" style="shape=hexagon;perimeter=hexagonPerimeter2;whiteSpace=wrap;html=1;fixedSize=1;rounded=0;strokeWidth=1;align=center;verticalAlign=middle;fontFamily=Helvetica;fontSize=12;fontColor=default;resizable=1;fillColor=#111111;strokeColor=none;size=3.8021390374331503;container=0;" parent="31jEwdzjXjWapc_lvmB_-1" vertex="1">
          <mxGeometry x="368.5" y="10.950000000000003" width="17" height="6" as="geometry" />
        </mxCell>
        <mxCell id="s0dWRtyi07ZF37cMcm2--223" value="" style="whiteSpace=wrap;html=1;rounded=0;strokeWidth=1;align=center;verticalAlign=middle;fontFamily=Helvetica;fontSize=12;fontColor=default;resizable=1;fillColor=#111111;strokeColor=none;container=0;" parent="31jEwdzjXjWapc_lvmB_-1" vertex="1">
          <mxGeometry x="348.5" y="9.950000000000003" width="5" height="15" as="geometry" />
        </mxCell>
        <mxCell id="s0dWRtyi07ZF37cMcm2--224" value="" style="shape=trapezoid;perimeter=trapezoidPerimeter;whiteSpace=wrap;html=1;fixedSize=1;rounded=0;strokeWidth=1;align=center;verticalAlign=middle;fontFamily=Helvetica;fontSize=12;fontColor=default;resizable=1;fillColor=#111111;strokeColor=none;rotation=90;size=3.977491961414785;container=0;" parent="31jEwdzjXjWapc_lvmB_-1" vertex="1">
          <mxGeometry x="353.5" y="9.950000000000003" width="15" height="15" as="geometry" />
        </mxCell>
        <mxCell id="s0dWRtyi07ZF37cMcm2--225" value="" style="whiteSpace=wrap;html=1;rounded=0;strokeWidth=1;align=center;verticalAlign=middle;fontFamily=Helvetica;fontSize=12;fontColor=default;resizable=1;fillColor=#111111;strokeColor=none;container=0;" parent="31jEwdzjXjWapc_lvmB_-1" vertex="1">
          <mxGeometry x="414.5" y="10.950000000000003" width="6" height="13" as="geometry" />
        </mxCell>
        <mxCell id="s0dWRtyi07ZF37cMcm2--226" value="" style="whiteSpace=wrap;html=1;rounded=0;strokeWidth=1;align=center;verticalAlign=middle;fontFamily=Helvetica;fontSize=12;fontColor=default;resizable=1;fillColor=#333333;strokeColor=none;container=0;" parent="31jEwdzjXjWapc_lvmB_-1" vertex="1">
          <mxGeometry x="420.5" y="10.950000000000003" width="4" height="13" as="geometry" />
        </mxCell>
        <mxCell id="s0dWRtyi07ZF37cMcm2--227" value="" style="rounded=1;whiteSpace=wrap;html=1;strokeWidth=1;align=center;verticalAlign=middle;fontFamily=Helvetica;fontSize=12;fontColor=default;resizable=1;fillColor=#222222;strokeColor=none;arcSize=50;gradientColor=#333333;gradientDirection=east;container=0;" parent="31jEwdzjXjWapc_lvmB_-1" vertex="1">
          <mxGeometry x="349" y="12.200000000000003" width="14" height="5" as="geometry" />
        </mxCell>
        <mxCell id="s0dWRtyi07ZF37cMcm2--228" value="" style="rounded=1;whiteSpace=wrap;html=1;strokeWidth=1;align=center;verticalAlign=middle;fontFamily=Helvetica;fontSize=12;fontColor=default;resizable=1;fillColor=#222222;strokeColor=none;arcSize=50;gradientColor=#333333;gradientDirection=east;container=0;" parent="31jEwdzjXjWapc_lvmB_-1" vertex="1">
          <mxGeometry x="349" y="17.700000000000003" width="14" height="5" as="geometry" />
        </mxCell>
        <mxCell id="s0dWRtyi07ZF37cMcm2--229" value="" style="triangle;whiteSpace=wrap;html=1;strokeColor=#111111;rounded=0;strokeWidth=0.1;align=center;verticalAlign=middle;fontFamily=Helvetica;fontSize=12;fontColor=default;resizable=1;fillColor=#333333;rotation=-180;container=0;" parent="31jEwdzjXjWapc_lvmB_-1" vertex="1">
          <mxGeometry x="421" y="15.950000000000003" width="3" height="3" as="geometry" />
        </mxCell>
        <mxCell id="s0dWRtyi07ZF37cMcm2--230" value="" style="shape=hexagon;perimeter=hexagonPerimeter2;whiteSpace=wrap;html=1;fixedSize=1;rounded=0;strokeWidth=1;align=center;verticalAlign=middle;fontFamily=Helvetica;fontSize=12;fontColor=default;resizable=1;fillColor=#111111;strokeColor=none;size=3.8021390374331503;container=0;" parent="31jEwdzjXjWapc_lvmB_-1" vertex="1">
          <mxGeometry x="368.5" y="17.950000000000003" width="17" height="6" as="geometry" />
        </mxCell>
        <mxCell id="s0dWRtyi07ZF37cMcm2--231" value="" style="shape=hexagon;perimeter=hexagonPerimeter2;whiteSpace=wrap;html=1;fixedSize=1;rounded=0;strokeWidth=1;align=center;verticalAlign=middle;fontFamily=Helvetica;fontSize=12;fontColor=default;resizable=1;fillColor=#111111;strokeColor=none;size=3.8021390374331503;container=0;" parent="31jEwdzjXjWapc_lvmB_-1" vertex="1">
          <mxGeometry x="382.5" y="14.450000000000003" width="17" height="6" as="geometry" />
        </mxCell>
        <mxCell id="s0dWRtyi07ZF37cMcm2--232" value="" style="shape=hexagon;perimeter=hexagonPerimeter2;whiteSpace=wrap;html=1;fixedSize=1;rounded=0;strokeWidth=1;align=center;verticalAlign=middle;fontFamily=Helvetica;fontSize=12;fontColor=default;resizable=1;fillColor=#111111;strokeColor=none;size=3.8021390374331503;container=0;" parent="31jEwdzjXjWapc_lvmB_-1" vertex="1">
          <mxGeometry x="396.5" y="17.950000000000003" width="17" height="6" as="geometry" />
        </mxCell>
        <mxCell id="s0dWRtyi07ZF37cMcm2--233" value="" style="shape=hexagon;perimeter=hexagonPerimeter2;whiteSpace=wrap;html=1;fixedSize=1;rounded=0;strokeWidth=1;align=center;verticalAlign=middle;fontFamily=Helvetica;fontSize=12;fontColor=default;resizable=1;fillColor=#111111;strokeColor=none;size=3.8021390374331503;container=0;" parent="31jEwdzjXjWapc_lvmB_-1" vertex="1">
          <mxGeometry x="396.5" y="10.950000000000003" width="17" height="6" as="geometry" />
        </mxCell>
        <mxCell id="s0dWRtyi07ZF37cMcm2--234" value="" style="shape=trapezoid;perimeter=trapezoidPerimeter;whiteSpace=wrap;html=1;fixedSize=1;rounded=0;strokeWidth=1;align=center;verticalAlign=middle;fontFamily=Helvetica;fontSize=12;fontColor=default;resizable=1;fillColor=#111111;strokeColor=none;size=3.799999999999997;container=0;" parent="31jEwdzjXjWapc_lvmB_-1" vertex="1">
          <mxGeometry x="382.5" y="14.450000000000003" width="17" height="3" as="geometry" />
        </mxCell>
        <mxCell id="s0dWRtyi07ZF37cMcm2--235" value="" style="shape=trapezoid;perimeter=trapezoidPerimeter;whiteSpace=wrap;html=1;fixedSize=1;rounded=0;strokeWidth=1;align=center;verticalAlign=middle;fontFamily=Helvetica;fontSize=12;fontColor=default;resizable=1;fillColor=#111111;strokeColor=none;size=3.799999999999997;container=0;" parent="31jEwdzjXjWapc_lvmB_-1" vertex="1">
          <mxGeometry x="382.5" y="21.450000000000003" width="17" height="3" as="geometry" />
        </mxCell>
        <mxCell id="s0dWRtyi07ZF37cMcm2--236" value="" style="shape=trapezoid;perimeter=trapezoidPerimeter;whiteSpace=wrap;html=1;fixedSize=1;rounded=0;strokeWidth=1;align=center;verticalAlign=middle;fontFamily=Helvetica;fontSize=12;fontColor=default;resizable=1;fillColor=#111111;strokeColor=none;size=3.799999999999997;flipV=1;container=0;" parent="31jEwdzjXjWapc_lvmB_-1" vertex="1">
          <mxGeometry x="382.5" y="10.450000000000003" width="17" height="3" as="geometry" />
        </mxCell>
        <mxCell id="s0dWRtyi07ZF37cMcm2--237" value="" style="whiteSpace=wrap;html=1;rounded=0;strokeWidth=1;align=center;verticalAlign=middle;fontFamily=Helvetica;fontSize=12;fontColor=default;resizable=1;fillColor=#222222;strokeColor=none;container=0;" parent="31jEwdzjXjWapc_lvmB_-1" vertex="1">
          <mxGeometry x="372" y="23.950000000000003" width="38" height="1" as="geometry" />
        </mxCell>
        <mxCell id="s0dWRtyi07ZF37cMcm2--238" value="" style="whiteSpace=wrap;html=1;rounded=0;strokeWidth=1;align=center;verticalAlign=middle;fontFamily=Helvetica;fontSize=12;fontColor=default;resizable=1;fillColor=#222222;strokeColor=none;container=0;" parent="31jEwdzjXjWapc_lvmB_-1" vertex="1">
          <mxGeometry x="372" y="9.950000000000003" width="38" height="1" as="geometry" />
        </mxCell>
        <mxCell id="s0dWRtyi07ZF37cMcm2--239" value="" style="rounded=1;whiteSpace=wrap;html=1;strokeColor=none;fillColor=#008a00;fontColor=#ffffff;container=0;" parent="31jEwdzjXjWapc_lvmB_-1" vertex="1">
          <mxGeometry x="425" y="19.950000000000003" width="2" height="3" as="geometry" />
        </mxCell>
        <mxCell id="s0dWRtyi07ZF37cMcm2--240" value="" style="rounded=1;whiteSpace=wrap;html=1;strokeColor=none;fillColor=#0050ef;fontColor=#ffffff;container=0;" parent="31jEwdzjXjWapc_lvmB_-1" vertex="1">
          <mxGeometry x="425" y="11.950000000000003" width="2" height="3" as="geometry" />
        </mxCell>
        <mxCell id="s0dWRtyi07ZF37cMcm2--242" value="" style="rounded=0;whiteSpace=wrap;html=1;strokeColor=none;fillColor=#222222;strokeWidth=1;movable=1;resizable=1;rotatable=1;deletable=1;editable=1;locked=0;connectable=1;container=0;" parent="31jEwdzjXjWapc_lvmB_-1" vertex="1">
          <mxGeometry x="348.5" y="26.950000000000003" width="80" height="15" as="geometry" />
        </mxCell>
        <mxCell id="s0dWRtyi07ZF37cMcm2--243" value="" style="whiteSpace=wrap;html=1;rounded=0;strokeWidth=1;align=center;verticalAlign=middle;fontFamily=Helvetica;fontSize=12;fontColor=default;resizable=1;fillColor=#333333;strokeColor=none;container=0;" parent="31jEwdzjXjWapc_lvmB_-1" vertex="1">
          <mxGeometry x="349.5" y="30.950000000000003" width="66" height="7" as="geometry" />
        </mxCell>
        <mxCell id="s0dWRtyi07ZF37cMcm2--244" value="" style="shape=hexagon;perimeter=hexagonPerimeter2;whiteSpace=wrap;html=1;fixedSize=1;rounded=0;strokeWidth=1;align=center;verticalAlign=middle;fontFamily=Helvetica;fontSize=12;fontColor=default;resizable=1;fillColor=#111111;strokeColor=none;size=3.8021390374331503;container=0;" parent="31jEwdzjXjWapc_lvmB_-1" vertex="1">
          <mxGeometry x="368.5" y="27.950000000000003" width="17" height="6" as="geometry" />
        </mxCell>
        <mxCell id="s0dWRtyi07ZF37cMcm2--245" value="" style="whiteSpace=wrap;html=1;rounded=0;strokeWidth=1;align=center;verticalAlign=middle;fontFamily=Helvetica;fontSize=12;fontColor=default;resizable=1;fillColor=#111111;strokeColor=none;container=0;" parent="31jEwdzjXjWapc_lvmB_-1" vertex="1">
          <mxGeometry x="348.5" y="26.950000000000003" width="5" height="15" as="geometry" />
        </mxCell>
        <mxCell id="s0dWRtyi07ZF37cMcm2--246" value="" style="shape=trapezoid;perimeter=trapezoidPerimeter;whiteSpace=wrap;html=1;fixedSize=1;rounded=0;strokeWidth=1;align=center;verticalAlign=middle;fontFamily=Helvetica;fontSize=12;fontColor=default;resizable=1;fillColor=#111111;strokeColor=none;rotation=90;size=3.977491961414785;container=0;" parent="31jEwdzjXjWapc_lvmB_-1" vertex="1">
          <mxGeometry x="353.5" y="26.950000000000003" width="15" height="15" as="geometry" />
        </mxCell>
        <mxCell id="s0dWRtyi07ZF37cMcm2--247" value="" style="whiteSpace=wrap;html=1;rounded=0;strokeWidth=1;align=center;verticalAlign=middle;fontFamily=Helvetica;fontSize=12;fontColor=default;resizable=1;fillColor=#111111;strokeColor=none;container=0;" parent="31jEwdzjXjWapc_lvmB_-1" vertex="1">
          <mxGeometry x="414.5" y="27.950000000000003" width="6" height="13" as="geometry" />
        </mxCell>
        <mxCell id="s0dWRtyi07ZF37cMcm2--248" value="" style="whiteSpace=wrap;html=1;rounded=0;strokeWidth=1;align=center;verticalAlign=middle;fontFamily=Helvetica;fontSize=12;fontColor=default;resizable=1;fillColor=#333333;strokeColor=none;container=0;" parent="31jEwdzjXjWapc_lvmB_-1" vertex="1">
          <mxGeometry x="420.5" y="27.950000000000003" width="4" height="13" as="geometry" />
        </mxCell>
        <mxCell id="s0dWRtyi07ZF37cMcm2--249" value="" style="rounded=1;whiteSpace=wrap;html=1;strokeWidth=1;align=center;verticalAlign=middle;fontFamily=Helvetica;fontSize=12;fontColor=default;resizable=1;fillColor=#222222;strokeColor=none;arcSize=50;gradientColor=#333333;gradientDirection=east;container=0;" parent="31jEwdzjXjWapc_lvmB_-1" vertex="1">
          <mxGeometry x="349" y="29.200000000000003" width="14" height="5" as="geometry" />
        </mxCell>
        <mxCell id="s0dWRtyi07ZF37cMcm2--250" value="" style="rounded=1;whiteSpace=wrap;html=1;strokeWidth=1;align=center;verticalAlign=middle;fontFamily=Helvetica;fontSize=12;fontColor=default;resizable=1;fillColor=#222222;strokeColor=none;arcSize=50;gradientColor=#333333;gradientDirection=east;container=0;" parent="31jEwdzjXjWapc_lvmB_-1" vertex="1">
          <mxGeometry x="349" y="34.7" width="14" height="5" as="geometry" />
        </mxCell>
        <mxCell id="s0dWRtyi07ZF37cMcm2--251" value="" style="triangle;whiteSpace=wrap;html=1;strokeColor=#111111;rounded=0;strokeWidth=0.1;align=center;verticalAlign=middle;fontFamily=Helvetica;fontSize=12;fontColor=default;resizable=1;fillColor=#333333;rotation=-180;container=0;" parent="31jEwdzjXjWapc_lvmB_-1" vertex="1">
          <mxGeometry x="421" y="32.95" width="3" height="3" as="geometry" />
        </mxCell>
        <mxCell id="s0dWRtyi07ZF37cMcm2--252" value="" style="shape=hexagon;perimeter=hexagonPerimeter2;whiteSpace=wrap;html=1;fixedSize=1;rounded=0;strokeWidth=1;align=center;verticalAlign=middle;fontFamily=Helvetica;fontSize=12;fontColor=default;resizable=1;fillColor=#111111;strokeColor=none;size=3.8021390374331503;container=0;" parent="31jEwdzjXjWapc_lvmB_-1" vertex="1">
          <mxGeometry x="368.5" y="34.95" width="17" height="6" as="geometry" />
        </mxCell>
        <mxCell id="s0dWRtyi07ZF37cMcm2--253" value="" style="shape=hexagon;perimeter=hexagonPerimeter2;whiteSpace=wrap;html=1;fixedSize=1;rounded=0;strokeWidth=1;align=center;verticalAlign=middle;fontFamily=Helvetica;fontSize=12;fontColor=default;resizable=1;fillColor=#111111;strokeColor=none;size=3.8021390374331503;container=0;" parent="31jEwdzjXjWapc_lvmB_-1" vertex="1">
          <mxGeometry x="382.5" y="31.450000000000003" width="17" height="6" as="geometry" />
        </mxCell>
        <mxCell id="s0dWRtyi07ZF37cMcm2--254" value="" style="shape=hexagon;perimeter=hexagonPerimeter2;whiteSpace=wrap;html=1;fixedSize=1;rounded=0;strokeWidth=1;align=center;verticalAlign=middle;fontFamily=Helvetica;fontSize=12;fontColor=default;resizable=1;fillColor=#111111;strokeColor=none;size=3.8021390374331503;container=0;" parent="31jEwdzjXjWapc_lvmB_-1" vertex="1">
          <mxGeometry x="396.5" y="34.95" width="17" height="6" as="geometry" />
        </mxCell>
        <mxCell id="s0dWRtyi07ZF37cMcm2--255" value="" style="shape=hexagon;perimeter=hexagonPerimeter2;whiteSpace=wrap;html=1;fixedSize=1;rounded=0;strokeWidth=1;align=center;verticalAlign=middle;fontFamily=Helvetica;fontSize=12;fontColor=default;resizable=1;fillColor=#111111;strokeColor=none;size=3.8021390374331503;container=0;" parent="31jEwdzjXjWapc_lvmB_-1" vertex="1">
          <mxGeometry x="396.5" y="27.950000000000003" width="17" height="6" as="geometry" />
        </mxCell>
        <mxCell id="s0dWRtyi07ZF37cMcm2--256" value="" style="shape=trapezoid;perimeter=trapezoidPerimeter;whiteSpace=wrap;html=1;fixedSize=1;rounded=0;strokeWidth=1;align=center;verticalAlign=middle;fontFamily=Helvetica;fontSize=12;fontColor=default;resizable=1;fillColor=#111111;strokeColor=none;size=3.799999999999997;container=0;" parent="31jEwdzjXjWapc_lvmB_-1" vertex="1">
          <mxGeometry x="382.5" y="31.450000000000003" width="17" height="3" as="geometry" />
        </mxCell>
        <mxCell id="s0dWRtyi07ZF37cMcm2--257" value="" style="shape=trapezoid;perimeter=trapezoidPerimeter;whiteSpace=wrap;html=1;fixedSize=1;rounded=0;strokeWidth=1;align=center;verticalAlign=middle;fontFamily=Helvetica;fontSize=12;fontColor=default;resizable=1;fillColor=#111111;strokeColor=none;size=3.799999999999997;container=0;" parent="31jEwdzjXjWapc_lvmB_-1" vertex="1">
          <mxGeometry x="382.5" y="38.45" width="17" height="3" as="geometry" />
        </mxCell>
        <mxCell id="s0dWRtyi07ZF37cMcm2--258" value="" style="shape=trapezoid;perimeter=trapezoidPerimeter;whiteSpace=wrap;html=1;fixedSize=1;rounded=0;strokeWidth=1;align=center;verticalAlign=middle;fontFamily=Helvetica;fontSize=12;fontColor=default;resizable=1;fillColor=#111111;strokeColor=none;size=3.799999999999997;flipV=1;container=0;" parent="31jEwdzjXjWapc_lvmB_-1" vertex="1">
          <mxGeometry x="382.5" y="27.450000000000003" width="17" height="3" as="geometry" />
        </mxCell>
        <mxCell id="s0dWRtyi07ZF37cMcm2--259" value="" style="whiteSpace=wrap;html=1;rounded=0;strokeWidth=1;align=center;verticalAlign=middle;fontFamily=Helvetica;fontSize=12;fontColor=default;resizable=1;fillColor=#222222;strokeColor=none;container=0;" parent="31jEwdzjXjWapc_lvmB_-1" vertex="1">
          <mxGeometry x="372" y="40.95" width="38" height="1" as="geometry" />
        </mxCell>
        <mxCell id="s0dWRtyi07ZF37cMcm2--260" value="" style="whiteSpace=wrap;html=1;rounded=0;strokeWidth=1;align=center;verticalAlign=middle;fontFamily=Helvetica;fontSize=12;fontColor=default;resizable=1;fillColor=#222222;strokeColor=none;container=0;" parent="31jEwdzjXjWapc_lvmB_-1" vertex="1">
          <mxGeometry x="372" y="26.950000000000003" width="38" height="1" as="geometry" />
        </mxCell>
        <mxCell id="s0dWRtyi07ZF37cMcm2--261" value="" style="rounded=1;whiteSpace=wrap;html=1;strokeColor=none;fillColor=#008a00;fontColor=#ffffff;container=0;" parent="31jEwdzjXjWapc_lvmB_-1" vertex="1">
          <mxGeometry x="425" y="36.95" width="2" height="3" as="geometry" />
        </mxCell>
        <mxCell id="s0dWRtyi07ZF37cMcm2--262" value="" style="rounded=1;whiteSpace=wrap;html=1;strokeColor=none;fillColor=#0050ef;fontColor=#ffffff;container=0;" parent="31jEwdzjXjWapc_lvmB_-1" vertex="1">
          <mxGeometry x="425" y="28.950000000000003" width="2" height="3" as="geometry" />
        </mxCell>
        <mxCell id="s0dWRtyi07ZF37cMcm2--306" value="" style="rounded=0;whiteSpace=wrap;html=1;strokeColor=#aaaaaa;fillColor=#111111;strokeWidth=0.1;movable=1;resizable=1;rotatable=1;deletable=1;editable=1;locked=0;connectable=1;container=0;" parent="31jEwdzjXjWapc_lvmB_-1" vertex="1">
          <mxGeometry x="439.25" y="28" width="16" height="6" as="geometry" />
        </mxCell>
        <mxCell id="s0dWRtyi07ZF37cMcm2--307" value="" style="rounded=0;whiteSpace=wrap;html=1;strokeColor=none;fillColor=#0050ef;strokeWidth=0.5;fontColor=#ffffff;movable=1;resizable=1;rotatable=1;deletable=1;editable=1;locked=0;connectable=1;container=0;" parent="31jEwdzjXjWapc_lvmB_-1" vertex="1">
          <mxGeometry x="440.75" y="31.25" width="13" height="1.5" as="geometry" />
        </mxCell>
        <mxCell id="s0dWRtyi07ZF37cMcm2--314" value="" style="rounded=0;whiteSpace=wrap;html=1;strokeColor=#aaaaaa;fillColor=#111111;strokeWidth=0.1;movable=1;resizable=1;rotatable=1;deletable=1;editable=1;locked=0;connectable=1;container=0;" parent="31jEwdzjXjWapc_lvmB_-1" vertex="1">
          <mxGeometry x="439.25" y="36" width="16" height="6" as="geometry" />
        </mxCell>
        <mxCell id="s0dWRtyi07ZF37cMcm2--315" value="" style="rounded=0;whiteSpace=wrap;html=1;strokeColor=none;fillColor=#0050ef;strokeWidth=0.5;fontColor=#ffffff;movable=1;resizable=1;rotatable=1;deletable=1;editable=1;locked=0;connectable=1;container=0;" parent="31jEwdzjXjWapc_lvmB_-1" vertex="1">
          <mxGeometry x="440.75" y="39.25" width="13" height="1.5" as="geometry" />
        </mxCell>
      </root>
    </mxGraphModel>
  </diagram>
</mxfile>
